<?xml version="1.0" standalone="no"?>
<!DOCTYPE svg PUBLIC "-//W3C//DTD SVG 20010904//EN"
 "http://www.w3.org/TR/2001/REC-SVG-20010904/DTD/svg10.dtd">
<svg version="1.0" xmlns="http://www.w3.org/2000/svg"
 width="300.000000pt" height="300.000000pt" viewBox="0 0 300.000000 300.000000"
 preserveAspectRatio="xMidYMid meet">
<metadata>
Created by potrace 1.11, written by Peter Selinger 2001-2013
</metadata>
<g transform="translate(0.000000,300.000000) scale(0.100000,-0.100000)"
fill="#000000" stroke="none">
<path d="M1000 2500 l0 -500 -500 0 -500 0 0 -1000 0 -1000 1500 0 1500 0 0
1500 0 1500 -1000 0 -1000 0 0 -500z m1651 -332 c143 -138 258 -254 257 -258
-2 -3 -210 -206 -463 -451 -253 -244 -605 -585 -783 -757 -178 -171 -327 -312
-331 -312 -9 0 -646 606 -909 865 l-153 150 267 257 267 257 258 -252 c143
-139 262 -253 266 -254 5 -2 242 224 528 502 286 277 524 504 528 504 4 1 125
-112 268 -251z"/>
</g>
</svg>
