<svg width="100" height="100" viewBox="0 0 1440 1473" xmlns="http://www.w3.org/2000/svg" style="clip-rule:evenodd;fill-rule:evenodd;stroke-linecap:round;stroke-miterlimit:2;version:1"><style>.a{fill:url(#Gradient2);}.b{fill:none;stroke-width:0.5px;stroke:url(#Gradient2);}</style>
<linearGradient id="Gradient2" x1="0" x2="0" y1="0" y2="1">
        <stop offset="0%" stop-color="rgba(0, 123, 255, 0.4)"/>
        <stop offset="25%" stop-color="#1C97FF"/>
>        <stop offset="50%" stop-color="#84FFFF"/>
        <stop offset="75%" stop-color="#64FFDA"/>
        <stop offset="100%" stop-color="rgba(204, 220, 57, 0.4)"/>
      </linearGradient>
      <rect width="1440" height="1472" fill="none"/><clipPath><rect width="1440" height="1472"/></clipPath><g clip-path="url(#_clip1)"><path d="M20.1 868c1.6 0 2.8-1.3 2.8-2.8 0-1.6-1.3-2.8-2.8-2.8 -1.6 0-2.8 1.3-2.8 2.8 0 1.6 1.3 2.8 2.8 2.8Zm88.6-53.1c1.6 0 2.8-1.3 2.8-2.8 0-1.6-1.3-2.8-2.8-2.8 -1.6 0-2.8 1.3-2.8 2.8 0 1.6 1.3 2.8 2.8 2.8Zm-131.3-2.8c1.6 0 2.8-1.3 2.8-2.8 0-1.6-1.3-2.8-2.8-2.8 -1.6 0-2.8 1.3-2.8 2.8 0 1.6 1.3 2.8 2.8 2.8Zm22.1-11.8c1.6 0 2.8-1.3 2.8-2.8 0-1.6-1.3-2.8-2.8-2.8 -1.6 0-2.8 1.3-2.8 2.8 0 1.6 1.3 2.8 2.8 2.8Zm56-13.6c1.6 0 2.8-1.3 2.8-2.8 0-1.6-1.3-2.8-2.8-2.8 -1.6 0-2.8 1.3-2.8 2.8 0 1.6 1.3 2.8 2.8 2.8Zm-83.8-5.6c1.6 0 2.8-1.3 2.8-2.8 0-1.6-1.3-2.8-2.8-2.8 -1.6 0-2.8 1.3-2.8 2.8 0 1.6 1.3 2.8 2.8 2.8Zm233.9-13.2c1.6 0 2.8-1.3 2.8-2.8 0-1.6-1.3-2.8-2.8-2.8 -1.6 0-2.8 1.3-2.8 2.8 0 1.6 1.3 2.8 2.8 2.8Zm-206.1-12.7c1.6 0 2.8-1.3 2.8-2.8 0-1.6-1.3-2.8-2.8-2.8 -1.6 0-2.8 1.3-2.8 2.8 0 1.6 1.3 2.8 2.8 2.8Zm89.2-0.1c1.6 0 2.8-1.3 2.8-2.8 0-1.6-1.3-2.8-2.8-2.8 -1.6 0-2.8 1.3-2.8 2.8 0 1.6 1.3 2.8 2.8 2.8Zm-36-36.1c1.6 0 2.8-1.3 2.8-2.8 0-1.6-1.3-2.8-2.8-2.8 -1.6 0-2.8 1.3-2.8 2.8 0 1.6 1.3 2.8 2.8 2.8Zm95.1-2.8c1.6 0 2.8-1.3 2.8-2.8 0-1.6-1.3-2.8-2.8-2.8 -1.6 0-2.8 1.3-2.8 2.8 0 1.6 1.3 2.8 2.8 2.8Zm-164.7-5.6c1.6 0 2.8-1.3 2.8-2.8 0-1.6-1.3-2.8-2.8-2.8 -1.6 0-2.8 1.3-2.8 2.8 0 1.6 1.3 2.8 2.8 2.8Zm254.6-12.2c1.6 0 2.8-1.3 2.8-2.8 0-1.6-1.3-2.8-2.8-2.8 -1.6 0-2.8 1.3-2.8 2.8 0 1.6 1.3 2.8 2.8 2.8Zm-208.5-2.8c1.6 0 2.8-1.3 2.8-2.8 0-1.6-1.3-2.8-2.8-2.8 -1.6 0-2.8 1.3-2.8 2.8 0 1.6 1.3 2.8 2.8 2.8Zm73.9-5.6c1.6 0 2.8-1.3 2.8-2.8 0-1.6-1.3-2.8-2.8-2.8 -1.6 0-2.8 1.3-2.8 2.8 0 1.6 1.3 2.8 2.8 2.8Zm184-14.6c1.6 0 2.8-1.3 2.8-2.8 0-1.6-1.3-2.8-2.8-2.8 -1.6 0-2.8 1.3-2.8 2.8 0 1.6 1.3 2.8 2.8 2.8Zm-120.9-26.4c1.6 0 2.8-1.3 2.8-2.8 0-1.6-1.3-2.8-2.8-2.8 -1.6 0-2.8 1.3-2.8 2.8 0 1.6 1.3 2.8 2.8 2.8Zm45.2-19.8c1.6 0 2.8-1.3 2.8-2.8 0-1.6-1.3-2.8-2.8-2.8 -1.6 0-2.8 1.3-2.8 2.8 0 1.6 1.3 2.8 2.8 2.8Zm44.7-5.6c1.6 0 2.8-1.3 2.8-2.8 0-1.6-1.3-2.8-2.8-2.8 -1.6 0-2.8 1.3-2.8 2.8 0 1.6 1.3 2.8 2.8 2.8Zm161.9-23.1c1.6 0 2.8-1.3 2.8-2.8 0-1.6-1.3-2.8-2.8-2.8 -1.6 0-2.8 1.3-2.8 2.8 0 1.6 1.3 2.8 2.8 2.8Zm-117.7-14.1c1.6 0 2.8-1.3 2.8-2.8 0-1.6-1.3-2.8-2.8-2.8 -1.6 0-2.8 1.3-2.8 2.8 0 1.6 1.3 2.8 2.8 2.8Zm365.7-10.6c1.6 0 2.8-1.3 2.8-2.8 0-1.6-1.3-2.8-2.8-2.8 -1.6 0-2.8 1.3-2.8 2.8 0 1.6 1.3 2.8 2.8 2.8Zm-312.5-7.8c1.6 0 2.8-1.3 2.8-2.8 0-1.6-1.3-2.8-2.8-2.8 -1.6 0-2.8 1.3-2.8 2.8 0 1.6 1.3 2.8 2.8 2.8Zm-118.6 0c1.6 0 2.8-1.3 2.8-2.8 0-1.6-1.3-2.8-2.8-2.8 -1.6 0-2.8 1.3-2.8 2.8 0 1.6 1.3 2.8 2.8 2.8Zm318.6-2.8c1.6 0 2.8-1.3 2.8-2.8 0-1.6-1.3-2.8-2.8-2.8 -1.6 0-2.8 1.3-2.8 2.8 0 1.6 1.3 2.8 2.8 2.8Zm-72.9 0c1.6 0 2.8-1.3 2.8-2.8 0-1.6-1.3-2.8-2.8-2.8 -1.6 0-2.8 1.3-2.8 2.8 0 1.6 1.3 2.8 2.8 2.8Zm195.9-6.7c1.6 0 2.8-1.3 2.8-2.8 0-1.6-1.3-2.8-2.8-2.8 -1.6 0-2.8 1.3-2.8 2.8 0 1.6 1.3 2.8 2.8 2.8Zm-70.7-7.4c1.6 0 2.8-1.3 2.8-2.8 0-1.6-1.3-2.8-2.8-2.8 -1.6 0-2.8 1.3-2.8 2.8 0 1.6 1.3 2.8 2.8 2.8Zm-315.8-10.4c1.6 0 2.8-1.3 2.8-2.8 0-1.6-1.3-2.8-2.8-2.8 -1.6 0-2.8 1.3-2.8 2.8 0 1.6 1.3 2.8 2.8 2.8Zm138.4 0c1.6 0 2.8-1.3 2.8-2.8 0-1.6-1.3-2.8-2.8-2.8 -1.6 0-2.8 1.3-2.8 2.8 0 1.6 1.3 2.8 2.8 2.8Zm151.5-15.1c1.6 0 2.8-1.3 2.8-2.8 0-1.6-1.3-2.8-2.8-2.8 -1.6 0-2.8 1.3-2.8 2.8 0 1.6 1.3 2.8 2.8 2.8Zm-96.5-9.4c1.6 0 2.8-1.3 2.8-2.8 0-1.6-1.3-2.8-2.8-2.8 -1.6 0-2.8 1.3-2.8 2.8 0 1.6 1.3 2.8 2.8 2.8Zm245.2-15.8c1.6 0 2.8-1.3 2.8-2.8 0-1.6-1.3-2.8-2.8-2.8 -1.6 0-2.8 1.3-2.8 2.8 0 1.6 1.3 2.8 2.8 2.8Zm-49.3-9.3c1.6 0 2.8-1.3 2.8-2.8 0-1.6-1.3-2.8-2.8-2.8 -1.6 0-2.8 1.3-2.8 2.8 0 1.6 1.3 2.8 2.8 2.8Zm-41.4-22.6c1.6 0 2.8-1.3 2.8-2.8 0-1.6-1.3-2.8-2.8-2.8 -1.6 0-2.8 1.3-2.8 2.8 0 1.6 1.3 2.8 2.8 2.8Zm-308.8-9.2c1.6 0 2.8-1.3 2.8-2.8 0-1.6-1.3-2.8-2.8-2.8 -1.6 0-2.8 1.3-2.8 2.8 0 1.6 1.3 2.8 2.8 2.8Zm790.7-19.9c-1.6 0-2.8 1.3-2.8 2.8 0 1.6 1.3 2.8 2.8 2.8 1.6 0 2.8-1.3 2.8-2.8 0-1.6-1.3-2.8-2.8-2.8Zm-308.9-3c1.6 0 2.8-1.3 2.8-2.8 0-1.6-1.3-2.8-2.8-2.8 -1.6 0-2.8 1.3-2.8 2.8 0 1.6 1.3 2.8 2.8 2.8Zm-121.5 0c1.6 0 2.8-1.3 2.8-2.8 0-1.6-1.3-2.8-2.8-2.8 -1.6 0-2.8 1.3-2.8 2.8 0 1.6 1.3 2.8 2.8 2.8Zm92.4-17.1c1.6 0 2.8-1.3 2.8-2.8 0-1.6-1.3-2.8-2.8-2.8 -1.6 0-2.8 1.3-2.8 2.8 0 1.6 1.3 2.8 2.8 2.8Zm-53.1-20.2c1.6 0 2.8-1.3 2.8-2.8 0-1.6-1.3-2.8-2.8-2.8 -1.6 0-2.8 1.3-2.8 2.8 0 1.6 1.3 2.8 2.8 2.8Zm236.7-16.7c-1.6 0-2.8 1.3-2.8 2.8 0 1.6 1.3 2.8 2.8 2.8 1.6 0 2.8-1.3 2.8-2.8 0-1.6-1.3-2.8-2.8-2.8Zm-96.5-9.4c-1.6 0-2.8 1.3-2.8 2.8 0 1.6 1.3 2.8 2.8 2.8 1.6 0 2.8-1.3 2.8-2.8 0-1.6-1.3-2.8-2.8-2.8Zm151.5-15.1c-1.6 0-2.8 1.3-2.8 2.8 0 1.6 1.3 2.8 2.8 2.8 1.6 0 2.8-1.3 2.8-2.8 0-1.6-1.3-2.8-2.8-2.8Zm138.4 0c-1.6 0-2.8 1.3-2.8 2.8 0 1.6 1.3 2.8 2.8 2.8 1.6 0 2.8-1.3 2.8-2.8 0-1.6-1.3-2.8-2.8-2.8Zm-315.8-10.4c-1.6 0-2.8 1.3-2.8 2.8 0 1.6 1.3 2.8 2.8 2.8 1.6 0 2.8-1.3 2.8-2.8 0-1.6-1.3-2.8-2.8-2.8Zm-70.5-0.7c1.6 0 2.8-1.3 2.8-2.8 0-1.6-1.3-2.8-2.8-2.8 -1.6 0-2.8 1.3-2.8 2.8 0 1.6 1.3 2.8 2.8 2.8Zm195.6-13.4c-1.6 0-2.8 1.3-2.8 2.8 0 1.6 1.3 2.8 2.8 2.8 1.6 0 2.8-1.3 2.8-2.8 0-1.6-1.3-2.8-2.8-2.8Zm-72.9 0c-1.6 0-2.8 1.3-2.8 2.8 0 1.6 1.3 2.8 2.8 2.8 1.6 0 2.8-1.3 2.8-2.8 0-1.6-1.3-2.8-2.8-2.8Zm318.6-2.8c-1.6 0-2.8 1.3-2.8 2.8 0 1.6 1.3 2.8 2.8 2.8 1.6 0 2.8-1.3 2.8-2.8 0-1.6-1.3-2.8-2.8-2.8Zm-118.6 0c-1.6 0-2.8 1.3-2.8 2.8 0 1.6 1.3 2.8 2.8 2.8 1.6 0 2.8-1.3 2.8-2.8 0-1.6-1.3-2.8-2.8-2.8Zm-311.5-2.3c1.6 0 2.8-1.3 2.8-2.8 0-1.6-1.3-2.8-2.8-2.8 -1.6 0-2.8 1.3-2.8 2.8 0 1.6 1.3 2.8 2.8 2.8Zm364.7-16c-1.6 0-2.8 1.3-2.8 2.8 0 1.6 1.3 2.8 2.8 2.8 1.6 0 2.8-1.3 2.8-2.8 0-1.6-1.3-2.8-2.8-2.8Zm-117.7-14.1c-1.6 0-2.8 1.3-2.8 2.8 0 1.6 1.3 2.8 2.8 2.8 1.6 0 2.8-1.3 2.8-2.8 0-1.6-1.3-2.8-2.8-2.8Zm161.9-23.1c-1.6 0-2.8 1.3-2.8 2.8 0 1.6 1.3 2.8 2.8 2.8 1.6 0 2.8-1.3 2.8-2.8 0-1.6-1.3-2.8-2.8-2.8Zm44.7-5.6c-1.6 0-2.8 1.3-2.8 2.8 0 1.6 1.3 2.8 2.8 2.8 1.6 0 2.8-1.3 2.8-2.8 0-1.6-1.3-2.8-2.8-2.8Zm45.2-19.8c-1.6 0-2.8 1.3-2.8 2.8 0 1.6 1.3 2.8 2.8 2.8 1.6 0 2.8-1.3 2.8-2.8 0-1.6-1.3-2.8-2.8-2.8Zm-120.9-26.4c-1.6 0-2.8 1.3-2.8 2.8 0 1.6 1.3 2.8 2.8 2.8 1.6 0 2.8-1.3 2.8-2.8 0-1.6-1.3-2.8-2.8-2.8Zm184-14.6c-1.6 0-2.8 1.3-2.8 2.8 0 1.6 1.3 2.8 2.8 2.8 1.6 0 2.8-1.3 2.8-2.8 0-1.6-1.3-2.8-2.8-2.8Zm73.9-5.6c-1.6 0-2.8 1.3-2.8 2.8 0 1.6 1.3 2.8 2.8 2.8 1.6 0 2.8-1.3 2.8-2.8 0-1.6-1.3-2.8-2.8-2.8Zm-208.5-2.8c-1.6 0-2.8 1.3-2.8 2.8 0 1.6 1.3 2.8 2.8 2.8 1.6 0 2.8-1.3 2.8-2.8 0-1.6-1.3-2.8-2.8-2.8Zm254.6-12.2c-1.6 0-2.8 1.3-2.8 2.8 0 1.6 1.3 2.8 2.8 2.8 1.6 0 2.8-1.3 2.8-2.8 0-1.6-1.3-2.8-2.8-2.8Zm-164.7-5.6c-1.6 0-2.8 1.3-2.8 2.8 0 1.6 1.3 2.8 2.8 2.8 1.6 0 2.8-1.3 2.8-2.8 0-1.6-1.3-2.8-2.8-2.8Zm95.1-2.8c-1.6 0-2.8 1.3-2.8 2.8 0 1.6 1.3 2.8 2.8 2.8 1.6 0 2.8-1.3 2.8-2.8 0-1.6-1.3-2.8-2.8-2.8Zm53.2-36.2c-1.6 0-2.8 1.3-2.8 2.8 0 1.6 1.3 2.8 2.8 2.8 1.6 0 2.8-1.3 2.8-2.8 0-1.6-1.3-2.8-2.8-2.8Zm-89.4 0c-1.6 0-2.8 1.3-2.8 2.8 0 1.6 1.3 2.8 2.8 2.8 1.6 0 2.8-1.3 2.8-2.8 0-1.6-1.3-2.8-2.8-2.8Zm-116.7-12.7c-1.6 0-2.8 1.3-2.8 2.8 0 1.6 1.3 2.8 2.8 2.8 1.6 0 2.8-1.3 2.8-2.8 0-1.6-1.3-2.8-2.8-2.8Zm233.9-13.2c-1.6 0-2.8 1.3-2.8 2.8 0 1.6 1.3 2.8 2.8 2.8 1.6 0 2.8-1.3 2.8-2.8 0-1.6-1.3-2.8-2.8-2.8Zm-83.8-5.6c-1.6 0-2.8 1.3-2.8 2.8 0 1.6 1.3 2.8 2.8 2.8 1.6 0 2.8-1.3 2.8-2.8 0-1.6-1.3-2.8-2.8-2.8Zm56-13.6c-1.6 0-2.8 1.3-2.8 2.8 0 1.6 1.3 2.8 2.8 2.8 1.6 0 2.8-1.3 2.8-2.8 0-1.6-1.3-2.8-2.8-2.8Zm22.1-11.8c-1.6 0-2.8 1.3-2.8 2.8 0 1.6 1.3 2.8 2.8 2.8 1.6 0 2.8-1.3 2.8-2.8 0-1.6-1.3-2.8-2.8-2.8Zm-131.3-2.8c-1.6 0-2.8 1.3-2.8 2.8 0 1.6 1.3 2.8 2.8 2.8 1.6 0 2.8-1.3 2.8-2.8 0-1.6-1.3-2.8-2.8-2.8Z" class="a"/><path d="M-42.8 901c1.5-0.4 3.1 0.5 3.5 2 0.4 1.5-0.5 3.1-2 3.5 -1.5 0.4-3.1-0.5-3.5-2 -0.4-1.5 0.5-3.1 2-3.5Zm99.3 28.3c1.5-0.4 3.1 0.5 3.5 2 0.4 1.5-0.5 3.1-2 3.5 -1.5 0.4-3.1-0.5-3.5-2 -0.4-1.5 0.5-3.1 2-3.5Zm-126.1 36.7c1.5-0.4 3.1 0.5 3.5 2 0.4 1.5-0.5 3.1-2 3.5 -1.5 0.4-3.1-0.5-3.5-2 -0.4-1.5 0.5-3.1 2-3.5Zm24.4 5.6c1.5-0.4 3.1 0.5 3.5 2 0.4 1.5-0.5 3.1-2 3.5 -1.5 0.4-3.1-0.5-3.5-2 -0.4-1.5 0.5-3.1 2-3.5Zm57.6-1.3c1.5-0.4 3.1 0.5 3.5 2 0.4 1.5-0.5 3.1-2 3.5 -1.5 0.4-3.1-0.5-3.5-2 -0.4-1.5 0.5-3.1 2-3.5Zm-79.5 27.1c1.5-0.4 3.1 0.5 3.5 2 0.4 1.5-0.5 3.1-2 3.5 -1.5 0.4-3.1-0.5-3.5-2 -0.4-1.5 0.5-3.1 2-3.5Zm229.3-47.8c1.5-0.4 3.1 0.5 3.5 2 0.4 1.5-0.5 3.1-2 3.5 -1.5 0.4-3.1-0.5-3.5-2 -0.4-1.5 0.5-3.1 2-3.5Zm-195.8 65.6c1.5-0.4 3.1 0.5 3.5 2 0.4 1.5-0.5 3.1-2 3.5 -1.5 0.4-3.1-0.5-3.5-2 -0.4-1.5 0.5-3.1 2-3.5Zm86.2-23c1.5-0.4 3.1 0.5 3.5 2 0.4 1.5-0.5 3.1-2 3.5 -1.5 0.4-3.1-0.5-3.5-2 -0.4-1.5 0.5-3.1 2-3.5Zm-25.4 44.2c1.5-0.4 3.1 0.5 3.5 2 0.4 1.5-0.5 3.1-2 3.5 -1.5 0.4-3.1-0.5-3.5-2 -0.4-1.5 0.5-3.1 2-3.5Zm92.6-21.9c1.5-0.4 3.1 0.5 3.5 2 0.4 1.5-0.5 3.1-2 3.5 -1.5 0.4-3.1-0.5-3.5-2 -0.4-1.5 0.5-3.1 2-3.5Zm-157.6 48.1c1.5-0.4 3.1 0.5 3.5 2 0.4 1.5-0.5 3.1-2 3.5 -1.5 0.4-3.1-0.5-3.5-2 -0.4-1.5 0.5-3.1 2-3.5Zm249.1-54.1c1.5-0.4 3.1 0.5 3.5 2 0.4 1.5-0.5 3.1-2 3.5 -1.5 0.4-3.1-0.5-3.5-2 -0.4-1.5 0.5-3.1 2-3.5Zm-200.7 56.7c1.5-0.4 3.1 0.5 3.5 2 0.4 1.5-0.5 3.1-2 3.5 -1.5 0.4-3.1-0.5-3.5-2 -0.4-1.5 0.5-3.1 2-3.5Zm72.8-13.7c1.5-0.4 3.1 0.5 3.5 2 0.4 1.5-0.5 3.1-2 3.5 -1.5 0.4-3.1-0.5-3.5-2 -0.4-1.5 0.5-3.1 2-3.5Zm181.5-33.5c1.5-0.4 3.1 0.5 3.5 2 0.4 1.5-0.5 3.1-2 3.5 -1.5 0.4-3.1-0.5-3.5-2 -0.4-1.5 0.5-3.1 2-3.5Zm-110 56.8c1.5-0.4 3.1 0.5 3.5 2 0.4 1.5-0.5 3.1-2 3.5 -1.5 0.4-3.1-0.5-3.5-2 -0.4-1.5 0.5-3.1 2-3.5Zm48.8 7.4c1.5-0.4 3.1 0.5 3.5 2 0.4 1.5-0.5 3.1-2 3.5 -1.5 0.4-3.1-0.5-3.5-2 -0.4-1.5 0.5-3.1 2-3.5Zm44.6-6.1c1.5-0.4 3.1 0.5 3.5 2 0.4 1.5-0.5 3.1-2 3.5 -1.5 0.4-3.1-0.5-3.5-2 -0.4-1.5 0.5-3.1 2-3.5Zm162.3-19.6c1.5-0.4 3.1 0.5 3.5 2 0.4 1.5-0.5 3.1-2 3.5 -1.5 0.4-3.1-0.5-3.5-2 -0.4-1.5 0.5-3.1 2-3.5Zm-110 44.1c1.5-0.4 3.1 0.5 3.5 2 0.4 1.5-0.5 3.1-2 3.5 -1.5 0.4-3.1-0.5-3.5-2 -0.4-1.5 0.5-3.1 2-3.5Zm356-84.4c1.5-0.4 3.1 0.5 3.5 2 0.4 1.5-0.5 3.1-2 3.5 -1.5 0.4-3.1-0.5-3.5-2 -0.4-1.5 0.5-3.1 2-3.5Zm-299.8 88.4c1.5-0.4 3.1 0.5 3.5 2 0.4 1.5-0.5 3.1-2 3.5 -1.5 0.4-3.1-0.5-3.5-2 -0.4-1.5 0.5-3.1 2-3.5Zm-114.6 30.7c1.5-0.4 3.1 0.5 3.5 2 0.4 1.5-0.5 3.1-2 3.5 -1.5 0.4-3.1-0.5-3.5-2 -0.4-1.5 0.5-3.1 2-3.5Zm308.5-79.7c1.5-0.4 3.1 0.5 3.5 2 0.4 1.5-0.5 3.1-2 3.5 -1.5 0.4-3.1-0.5-3.5-2 -0.4-1.5 0.5-3.1 2-3.5Zm-70.5 18.9c1.5-0.4 3.1 0.5 3.5 2 0.4 1.5-0.5 3.1-2 3.5 -1.5 0.4-3.1-0.5-3.5-2 -0.4-1.5 0.5-3.1 2-3.5Zm191-44.2c1.5-0.4 3.1 0.5 3.5 2 0.4 1.5-0.5 3.1-2 3.5 -1.5 0.4-3.1-0.5-3.5-2 -0.4-1.5 0.5-3.1 2-3.5Zm-66.4 25.4c1.5-0.4 3.1 0.5 3.5 2 0.4 1.5-0.5 3.1-2 3.5 -1.5 0.4-3.1-0.5-3.5-2 -0.4-1.5 0.5-3.1 2-3.5Zm-302.3 91.7c1.5-0.4 3.1 0.5 3.5 2 0.4 1.5-0.5 3.1-2 3.5 -1.5 0.4-3.1-0.5-3.5-2 -0.4-1.5 0.5-3.1 2-3.5Zm133.6-35.8c1.5-0.4 3.1 0.5 3.5 2 0.4 1.5-0.5 3.1-2 3.5 -1.5 0.4-3.1-0.5-3.5-2 -0.4-1.5 0.5-3.1 2-3.5Zm150.3-24.7c1.5-0.4 3.1 0.5 3.5 2 0.4 1.5-0.5 3.1-2 3.5 -1.5 0.4-3.1-0.5-3.5-2 -0.4-1.5 0.5-3.1 2-3.5Zm-90.8 34.1c1.5-0.4 3.1 0.5 3.5 2 0.4 1.5-0.5 3.1-2 3.5 -1.5 0.4-3.1-0.5-3.5-2 -0.4-1.5 0.5-3.1 2-3.5Zm241-48.2c1.5-0.4 3.1 0.5 3.5 2 0.4 1.5-0.5 3.1-2 3.5 -1.5 0.4-3.1-0.5-3.5-2 -0.4-1.5 0.5-3.1 2-3.5Zm-45.2 21.7c1.5-0.4 3.1 0.5 3.5 2 0.4 1.5-0.5 3.1-2 3.5 -1.5 0.4-3.1-0.5-3.5-2 -0.4-1.5 0.5-3.1 2-3.5Zm-34.1 32.6c1.5-0.4 3.1 0.5 3.5 2 0.4 1.5-0.5 3.1-2 3.5 -1.5 0.4-3.1-0.5-3.5-2 -0.4-1.5 0.5-3.1 2-3.5Zm-295.9 88.8c1.5-0.4 3.1 0.5 3.5 2 0.4 1.5-0.5 3.1-2 3.5 -1.5 0.4-3.1-0.5-3.5-2 -0.4-1.5 0.5-3.1 2-3.5Zm768.9-185.5c-1.5 0.4-3.1-0.5-3.5-2 -0.4-1.5 0.5-3.1 2-3.5 1.5-0.4 3.1 0.5 3.5 2 0.4 1.5-0.5 3.1-2 3.5Zm-297.6 82.8c1.5-0.4 3.1 0.5 3.5 2 0.4 1.5-0.5 3.1-2 3.5 -1.5 0.4-3.1-0.5-3.5-2 -0.4-1.5 0.5-3.1 2-3.5Zm-117.3 31.4c1.5-0.4 3.1 0.5 3.5 2 0.4 1.5-0.5 3.1-2 3.5 -1.5 0.4-3.1-0.5-3.5-2 -0.4-1.5 0.5-3.1 2-3.5Zm93.7-7.4c1.5-0.4 3.1 0.5 3.5 2 0.4 1.5-0.5 3.1-2 3.5 -1.5 0.4-3.1-0.5-3.5-2 -0.4-1.5 0.5-3.1 2-3.5Zm-46.1 33.3c1.5-0.4 3.1 0.5 3.5 2 0.4 1.5-0.5 3.1-2 3.5 -1.5 0.4-3.1-0.5-3.5-2 -0.4-1.5 0.5-3.1 2-3.5Zm233-45.2c-1.5 0.4-3.1-0.5-3.5-2 -0.4-1.5 0.5-3.1 2-3.5 1.5-0.4 3.1 0.5 3.5 2 0.4 1.5-0.5 3.1-2 3.5Zm-90.8 34.1c-1.5 0.4-3.1-0.5-3.5-2 -0.4-1.5 0.5-3.1 2-3.5 1.5-0.4 3.1 0.5 3.5 2 0.4 1.5-0.5 3.1-2 3.5Zm150.3-24.7c-1.5 0.4-3.1-0.5-3.5-2 -0.4-1.5 0.5-3.1 2-3.5 1.5-0.4 3.1 0.5 3.5 2 0.4 1.5-0.5 3.1-2 3.5Zm133.6-35.8c-1.5 0.4-3.1-0.5-3.5-2 -0.4-1.5 0.5-3.1 2-3.5 1.5-0.4 3.1 0.5 3.5 2 0.4 1.5-0.5 3.1-2 3.5Zm-302.3 91.7c-1.5 0.4-3.1-0.5-3.5-2 -0.4-1.5 0.5-3.1 2-3.5 1.5-0.4 3.1 0.5 3.5 2 0.4 1.5-0.5 3.1-2 3.5Zm-67.9 18.9c1.5-0.4 3.1 0.5 3.5 2 0.4 1.5-0.5 3.1-2 3.5 -1.5 0.4-3.1-0.5-3.5-2 -0.4-1.5 0.5-3.1 2-3.5Zm192.5-37.7c-1.5 0.4-3.1-0.5-3.5-2 -0.4-1.5 0.5-3.1 2-3.5 1.5-0.4 3.1 0.5 3.5 2 0.4 1.5-0.5 3.1-2 3.5Zm-70.5 18.9c-1.5 0.4-3.1-0.5-3.5-2 -0.4-1.5 0.5-3.1 2-3.5 1.5-0.4 3.1 0.5 3.5 2 0.4 1.5-0.5 3.1-2 3.5Zm308.5-79.7c-1.5 0.4-3.1-0.5-3.5-2 -0.4-1.5 0.5-3.1 2-3.5 1.5-0.4 3.1 0.5 3.5 2 0.4 1.5-0.5 3.1-2 3.5Zm-114.6 30.7c-1.5 0.4-3.1-0.5-3.5-2 -0.4-1.5 0.5-3.1 2-3.5 1.5-0.4 3.1 0.5 3.5 2 0.4 1.5-0.5 3.1-2 3.5Zm-300.3 82.9c1.5-0.4 3.1 0.5 3.5 2 0.4 1.5-0.5 3.1-2 3.5 -1.5 0.4-3.1-0.5-3.5-2 -0.4-1.5 0.5-3.1 2-3.5Zm356.4-78.9c-1.5 0.4-3.1-0.5-3.5-2 -0.4-1.5 0.5-3.1 2-3.5 1.5-0.4 3.1 0.5 3.5 2 0.4 1.5-0.5 3.1-2 3.5Zm-110 44.1c-1.5 0.4-3.1-0.5-3.5-2 -0.4-1.5 0.5-3.1 2-3.5 1.5-0.4 3.1 0.5 3.5 2 0.4 1.5-0.5 3.1-2 3.5Zm162.3-19.6c-1.5 0.4-3.1-0.5-3.5-2 -0.4-1.5 0.5-3.1 2-3.5 1.5-0.4 3.1 0.5 3.5 2 0.4 1.5-0.5 3.1-2 3.5Zm44.6-6.1c-1.5 0.4-3.1-0.5-3.5-2 -0.4-1.5 0.5-3.1 2-3.5 1.5-0.4 3.1 0.5 3.5 2 0.4 1.5-0.5 3.1-2 3.5Zm48.8 7.4c-1.5 0.4-3.1-0.5-3.5-2 -0.4-1.5 0.5-3.1 2-3.5 1.5-0.4 3.1 0.5 3.5 2 0.4 1.5-0.5 3.1-2 3.5Zm-110 56.8c-1.5 0.4-3.1-0.5-3.5-2 -0.4-1.5 0.5-3.1 2-3.5 1.5-0.4 3.1 0.5 3.5 2 0.4 1.5-0.5 3.1-2 3.5Zm181.5-33.5c-1.5 0.4-3.1-0.5-3.5-2 -0.4-1.5 0.5-3.1 2-3.5 1.5-0.4 3.1 0.5 3.5 2 0.4 1.5-0.5 3.1-2 3.5Zm72.8-13.7c-1.5 0.4-3.1-0.5-3.5-2 -0.4-1.5 0.5-3.1 2-3.5 1.5-0.4 3.1 0.5 3.5 2 0.4 1.5-0.5 3.1-2 3.5Zm-200.7 56.7c-1.5 0.4-3.1-0.5-3.5-2 -0.4-1.5 0.5-3.1 2-3.5 1.5-0.4 3.1 0.5 3.5 2 0.4 1.5-0.5 3.1-2 3.5Zm249.1-54.1c-1.5 0.4-3.1-0.5-3.5-2 -0.4-1.5 0.5-3.1 2-3.5 1.5-0.4 3.1 0.5 3.5 2 0.4 1.5-0.5 3.1-2 3.5Zm-157.6 48.1c-1.5 0.4-3.1-0.5-3.5-2 -0.4-1.5 0.5-3.1 2-3.5 1.5-0.4 3.1 0.5 3.5 2 0.4 1.5-0.5 3.1-2 3.5Zm92.6-21.9c-1.5 0.4-3.1-0.5-3.5-2 -0.4-1.5 0.5-3.1 2-3.5 1.5-0.4 3.1 0.5 3.5 2 0.4 1.5-0.5 3.1-2 3.5Zm60.7 21.2c-1.5 0.4-3.1-0.5-3.5-2 -0.4-1.5 0.5-3.1 2-3.5 1.5-0.4 3.1 0.5 3.5 2 0.4 1.5-0.5 3.1-2 3.5Zm-86.4 23.1c-1.5 0.4-3.1-0.5-3.5-2 -0.4-1.5 0.5-3.1 2-3.5 1.5-0.4 3.1 0.5 3.5 2 0.4 1.5-0.5 3.1-2 3.5Zm-109.4 42.5c-1.5 0.4-3.1-0.5-3.5-2 -0.4-1.5 0.5-3.1 2-3.5 1.5-0.4 3.1 0.5 3.5 2 0.4 1.5-0.5 3.1-2 3.5Zm229.3-47.8c-1.5 0.4-3.1-0.5-3.5-2 -0.4-1.5 0.5-3.1 2-3.5 1.5-0.4 3.1 0.5 3.5 2 0.4 1.5-0.5 3.1-2 3.5Zm-79.5 27.1c-1.5 0.4-3.1-0.5-3.5-2 -0.4-1.5 0.5-3.1 2-3.5 1.5-0.4 3.1 0.5 3.5 2 0.4 1.5-0.5 3.1-2 3.5Zm57.6-1.3c-1.5 0.4-3.1-0.5-3.5-2 -0.4-1.5 0.5-3.1 2-3.5 1.5-0.4 3.1 0.5 3.5 2 0.4 1.5-0.5 3.1-2 3.5Zm24.4 5.6c-1.5 0.4-3.1-0.5-3.5-2 -0.4-1.5 0.5-3.1 2-3.5 1.5-0.4 3.1 0.5 3.5 2 0.4 1.5-0.5 3.1-2 3.5Zm-126.1 36.7c-1.5 0.4-3.1-0.5-3.5-2 -0.4-1.5 0.5-3.1 2-3.5 1.5-0.4 3.1 0.5 3.5 2 0.4 1.5-0.5 3.1-2 3.5Z" class="a"/><g><path d="M1464 15.9l-124.2 70.4 -39.1 98.8 -18.4 67.3 -45.2 19.8 -44.7 5.6 -44.2 37.2 -53.2 18.4 -64.5-32.5 -62.6 35.3 -72.9 0 -26.4 39.5 -25.9-25.4 -59.2-24.9 -11.2 18.5 -43.9 52.2 -39.3 37.3 -10.1 54.6 -73.5 59.9 -52.2 14.1 -125.2-24.5 -74.8 27.3 -63.5-27.3 -55.1 27.3 2.8 130.4 -89.9 17.9 -95.1 2.8 -23.5-23.5 -29.6 59.8 -69.4-33.4" class="b"/><path d="M1476.8 70.1l-83.8 44.5 -53.2-28.2 -96.9 47.1 -32 69.7 26.4 69.2 -23.5 61.2 -65.4-18.4 -117.7-14.1 -10.4 59.8 99.3 81.4 -154.4-56.9 -96.5-9.4 -58 57.8 -29.1-17.1 -53.1-20.2 0 101.2 -90.7-31.9 38.6 90 -96.6-32.8 -96.5-9.4 -65.4 84.2 -161.9 23.1 44.2-37.2 -13.2 88.9 -120.9-26.4 -77.4 106.4 -33.2 31.5 -56 13.6 -24.9-18.1" class="b"/><path d="M1479.6 37.1l-83.8 145.2 -36.2-36.2 -19.8-59.8 5.6 125.2 -44.7-26.4 -89.9 17.9 71.5 49.4 -120.9-26.4 31.1 51.8 21.2 55.5 -55.1 27.3 -10.4-45.7 -28.7 127.1 -24.5-108.7 -74.8 27.3 -52.2-24.5 -2.8 48.9 -70.1-48.9 -52.2 14.1 -61.2 66.1 -9.2-72.4 38.3 89.5 -82.2 63.9 -39.3-63.6 -51.5 31.7 -32.1 82.6 60.3 24.7 13.3-84.7 -99.4 34.5 -26.4 39.5 -70.1-48.9 -2.8 48.9 -52.2-24.5 -10.4 59.8 -64.5-32.5 -53.2 18.4 -10.4-45.7 -33.9 82.8 -44.7 5.6 75.8 46.1 -49.4 23.1 -32 69.7 -39.5-119.1 -18.4 67.3 -44.7-26.4 -14.3 65.3 19.9 59.9 -53.2-28.2 -2.8-67.8 -53.1 36.1 89.2 0 -133.6-82.7" class="b"/><path d="M1500.1 203l-107.1-88.5 2.8 67.8 23.5 23.5 46.1-56.9 -105.9-2.8 -14.1 65.4 -102.6-78.1 150.1-18.8 -92.2 70.6 -63.5 87.1 -75.8-46.1 49.4-23.1 -18.4 74.8 -31.1-51.8 -13.2 88.9 -53.2 18.4 63.5 27.3 -138.4 0 -55.1 24.5 -154.5 48.6 157.3-97.6 -99.3 39.5 -87.1 40.7 -53.1 81 -49.3-9.3 -2.8 67.3 -10.5 17.3c-114.7-35-227.3-73.4-337-116.5l21.8 109.6 202.7-3.7 -135.5 35.3 -130.8 74.8 -75.8-46.1 -45.2 19.8 -18.4 67.3 57.9 51.8 -96.9 47.1 -88.6 53.1 35.4-81.3 182.1-88.5 -148.8 56.9 -173.5 42.4" class="b"/><path d="M1507.8 37.1l-168 49.2 -178.4 139.8 -130.8 74.8 -65.4 84.2 -122.4-34.8 -114.4 45.8 -49.3 92 -251 49.6 -40.3-33 -59-48.4 -39.1 81.4 -123.8 108.2 -63.1 40.9 -73.9 5.6 -9 172.6 -70-81.3" class="b"/><path d="M-93.9 906.6l107 66.6 44.1-41 63.3 85.4 91.5-6 -56.3 66.2 48.8 7.4 44.6-6.1 52.4 24.5 1.8 46.8 58.8 68.5 74.8-104.3 59.5 9.4 -15.4-46.1 70.5-19.2 35.7 31.2 18.4-31.2 51.8-39.5 0.6 110.9 34.1-32.6 45.2-21.7 -21.4 71.8 93.7-7.3 9.8 72.4 66.4-24.3 18.4-31.4 106.2 12.5 -15.4-46.5 59.5 9.4 25.5 55.1 53.9-48.1 54.3-42.8 60.3 12.1 -6.1 59.1 37.1 67.5 56.3-66.2 35.1 60.3 63.3 85.4 60.5-45.2" class="b"/><path d="M-32.8 1019l60.7 20.3 25.4-44.2 109.7-42.6 -42.5 65 -36.4 37 127.8-43 53.7 10.4 -16.6 57.1 -6.1 59.1 58.4-34.7 56.1 4 53.9-48.1 25.5 55.1 114.6-56 54.3 0 52.2 71.6 14-96.9 20.2 64.3 23.9 50.2 47.6 25.9 55.9 39.1 15.6 15 -1.8-111.4 71 40.8 35.7 31.4 55.1-65.4 134.4-95 4.5 111.3 56.1 4 52.4 24.5 44.6-6.1 -61.3 64.8 53.7 8.8 91.5-6 36.4-37 30.6 59.5 48.9 2.8" class="b"/><path d="M-42.1 1003.1l55.2-30 40.2 22 3.8-63 26.9 122.4 78.9-102 48.9 59 -7.6 73.6 38.6 53 114.6-30.7 79.3 7 -132.6 35.8 192.2-26.4 90.8-34.1 105 7.6 117.6 43 -46.1 33.1 122.3 14.8 -52.6-72.1 162.1 7.7 192.8-27.4 -133.4 36.4 -44.4 36.6 123.5-30.2 114.6-30.7 38.6 53 -96-17.9 35.3 82.1 109.7-56.3 71.2 22.8 100.5 8" class="b"/><path d="M-55.5 1051.6l66.8 16.7 16.6-29 56.2 15.2 -30.8-59.4 67.1 22.3 35.1 61 110-58.2 37.7 130.1 54.2-41.9 123.5-31.2 106.1 12.5 84.8-56.7 65.4 42.6 72.3 64.7 23.6-24.2 52.6 72.1 54.1 0 70.5-18.9 238-60.9 -58.4 34.7 97 18.3 48.8 7.4 -7.4 125.2 105.8 20.4 3.6-62.8 55.1 19" class="b"/></g></g></svg>