<svg width="100" height="100" viewBox="0 0 1440 868" xmlns="http://www.w3.org/2000/svg" style="clip-rule:evenodd;fill-rule:evenodd;stroke-linecap:round;stroke-linejoin:round;stroke-miterlimit:2;version:1"><style>.a{fill:none;stroke-width:0.5px;stroke:#ffffff;}</style><rect width="1440" height="868" fill="none"/><clipPath><rect width="1440" height="868"/></clipPath><g clip-path="url(#_clip1)"><g><g><path d="M1513.8 101.7l-42.5-12.5 -22.8 12.1 -55.5 13.3 -53.2-28.2 -96.9 47.1 -32 69.6 -18.4 74.7 -44.2 37.3 -53.7 18.4 -64.6-32.7 -62 35.5 -73.1 0 -26.1 39.2 -85 40.3" class="a"/><path d="M1535.7 130.6l-58.8-10.3 -5.6-31.1 -23 56.6 -55.3-31.2 -33.8 31.7 -59.4 39 45.4 26.1 -62.7 41.1 -45.6 19.4 -44.3 5.9 -44.2 37.3 -118.3-14.3 -10.1 60.3 -51.9-24.8 -3.1 49.3 -70-49.3 -52.6 14 -60.3 66.5" class="a"/><path d="M1510.6 108.7l-33.7 11.5 -28.3-19 0.5 44.9 16.4 44.8 -45.9 15.5 -23.8-23.8 -36.3-36.5 -19.6-59.8 -40.1 98.9 -17.3 67.2 -71.5-49.4 -49.6 23.3 -131.3 74.4 89.4 141.4 39.4-81.6 -64.1-27 118.7 0 -65-18.3 -128.4 46 -125-24.8 199.7-2.8 66.7-107.1 31.2 51.4 18.4-74.7 26.4 69.2 158.4-89.7 -152.7-49.1 150.1-18.9 72.4 76.3 49.9-37.6 -38.4-33 -27.9 25.9 -109.2-59.8 108.7 14.9 28.9-56.9 -49.3-11.1 -88.3 53.1 172.5-29.4 -41 32.2 42.5 107.3 -154.4-50.3 148.5 76.2 -88.4-15.9 -74.5 4.9 -134.1-8.2 2.4 130.3 29.7-199.9 -84.2 227 -138.8 0.6 99.4 81 -154.4-56.5 -96.1-10.2 -26.5-25.2 -31.6 82.7 -38.1-89.3 192.4 42 -122.6-35.4 -113.9 46" class="a"/><path d="M1213.3 333.4l-54.5 27.1 -10.4-45.4 -28.7 126.5 -224.7-105.4 -111-9.9 58.4 23.9" class="a"/><path d="M-65.3 796.7l42.5 12.5 22.8-12.1 55.5-13.3 53.2 28.2 96.9-47.1 32-69.6 18.4-74.7 44.2-37.3 53.7-18.4 64.6 32.7 62-35.5 73.1 0 26.1-39.2 109.6-89.5 -23.7 139.1 10.8-17.2 52.1-58.1 -49.4-9.1 -41.2-22.7 51.4-32 39.2-37.3 0 101.1 53.2-80.9 -92.4 17.1 121.5 0 -29.1-17.1 -53.2-20.2 43.7-52.2 11.1-18.9" class="a"/><path d="M-87.2 767.9l58.8 10.3 5.6 31.1 23-56.6 55.3 31.2 33.8-31.7 59.4-39 -45.4-26.1 62.7-41.1 45.6-19.4 44.3-5.9 44.2-37.3 118.3 14.3 10.1-60.3 51.9 24.8 3.1-49.3 70 49.3 52.6-14 72.8-60.1" class="a"/><path d="M-62.1 789.7l33.7-11.5 28.3 19 -0.5-44.9 -16.4-44.8 45.9-15.5 23.8 23.8 36.3 36.5 19.6 59.8 40.1-98.9 17.3-67.2 71.5 49.4 49.6-23.3 131.3-74.4 -89.4-141.4 -39.4 81.6 64.1 27 -118.7 0 65 18.3 128.4-46 125.1 24.8 -199.7 2.8 -66.7 107.1 -31.2-51.4 -18.4 74.7 -26.4-69.2 -158.4 89.7 152.7 49.1 -150.1 18.9 -72.4-76.3 -49.9 37.6 38.5 33 27.9-25.9 109.2 59.8 -108.7-14.9 -28.9 56.9 49.3 11.1 88.3-53.1 -172.5 29.4 41-32.2 -42.5-107.3 154.4 50.3 -148.5-76.2 88.4 15.9 74.5-4.9 134.1 8.2 -2.4-130.3 -29.7 199.9 84.2-227 138.8-0.6 -99.4-81 154.4 56.5 96.1 10.2 26.5 25.2 31.6-82.7 38.1 89.3 -192.4-42 122.6 35.4 122.2-50.9" class="a"/><path d="M235.2 565.1l54.5-27.1 10.4 45.4 28.7-126.5 224.7 105.4 111 9.9 -58.4-23.9" class="a"/></g><path d="M20.1 868c1.6 0 2.8-1.3 2.8-2.8 0-1.6-1.3-2.8-2.8-2.8 -1.6 0-2.8 1.3-2.8 2.8 0 1.6 1.3 2.8 2.8 2.8Zm88.6-53.1c1.6 0 2.8-1.3 2.8-2.8 0-1.6-1.3-2.8-2.8-2.8 -1.6 0-2.8 1.3-2.8 2.8 0 1.6 1.3 2.8 2.8 2.8Zm-131.3-2.8c1.6 0 2.8-1.3 2.8-2.8 0-1.6-1.3-2.8-2.8-2.8 -1.6 0-2.8 1.3-2.8 2.8 0 1.6 1.3 2.8 2.8 2.8Zm22.1-11.8c1.6 0 2.8-1.3 2.8-2.8 0-1.6-1.3-2.8-2.8-2.8 -1.6 0-2.8 1.3-2.8 2.8 0 1.6 1.3 2.8 2.8 2.8Zm56-13.6c1.6 0 2.8-1.3 2.8-2.8 0-1.6-1.3-2.8-2.8-2.8 -1.6 0-2.8 1.3-2.8 2.8 0 1.6 1.3 2.8 2.8 2.8Zm-83.8-5.6c1.6 0 2.8-1.3 2.8-2.8 0-1.6-1.3-2.8-2.8-2.8 -1.6 0-2.8 1.3-2.8 2.8 0 1.6 1.3 2.8 2.8 2.8Zm233.9-13.2c1.6 0 2.8-1.3 2.8-2.8 0-1.6-1.3-2.8-2.8-2.8 -1.6 0-2.8 1.3-2.8 2.8 0 1.6 1.3 2.8 2.8 2.8Zm-206.1-12.7c1.6 0 2.8-1.3 2.8-2.8 0-1.6-1.3-2.8-2.8-2.8 -1.6 0-2.8 1.3-2.8 2.8 0 1.6 1.3 2.8 2.8 2.8Zm89.2-0.1c1.6 0 2.8-1.3 2.8-2.8 0-1.6-1.3-2.8-2.8-2.8 -1.6 0-2.8 1.3-2.8 2.8 0 1.6 1.3 2.8 2.8 2.8Zm-36-36.1c1.6 0 2.8-1.3 2.8-2.8 0-1.6-1.3-2.8-2.8-2.8 -1.6 0-2.8 1.3-2.8 2.8 0 1.6 1.3 2.8 2.8 2.8Zm95.1-2.8c1.6 0 2.8-1.3 2.8-2.8 0-1.6-1.3-2.8-2.8-2.8 -1.6 0-2.8 1.3-2.8 2.8 0 1.6 1.3 2.8 2.8 2.8Zm-164.7-5.6c1.6 0 2.8-1.3 2.8-2.8 0-1.6-1.3-2.8-2.8-2.8 -1.6 0-2.8 1.3-2.8 2.8 0 1.6 1.3 2.8 2.8 2.8Zm254.6-12.2c1.6 0 2.8-1.3 2.8-2.8 0-1.6-1.3-2.8-2.8-2.8 -1.6 0-2.8 1.3-2.8 2.8 0 1.6 1.3 2.8 2.8 2.8Zm-208.5-2.8c1.6 0 2.8-1.3 2.8-2.8 0-1.6-1.3-2.8-2.8-2.8 -1.6 0-2.8 1.3-2.8 2.8 0 1.6 1.3 2.8 2.8 2.8Zm73.9-5.6c1.6 0 2.8-1.3 2.8-2.8 0-1.6-1.3-2.8-2.8-2.8 -1.6 0-2.8 1.3-2.8 2.8 0 1.6 1.3 2.8 2.8 2.8Zm184-14.6c1.6 0 2.8-1.3 2.8-2.8 0-1.6-1.3-2.8-2.8-2.8 -1.6 0-2.8 1.3-2.8 2.8 0 1.6 1.3 2.8 2.8 2.8Zm-120.9-26.4c1.6 0 2.8-1.3 2.8-2.8 0-1.6-1.3-2.8-2.8-2.8 -1.6 0-2.8 1.3-2.8 2.8 0 1.6 1.3 2.8 2.8 2.8Zm45.2-19.8c1.6 0 2.8-1.3 2.8-2.8 0-1.6-1.3-2.8-2.8-2.8 -1.6 0-2.8 1.3-2.8 2.8 0 1.6 1.3 2.8 2.8 2.8Zm44.7-5.6c1.6 0 2.8-1.3 2.8-2.8 0-1.6-1.3-2.8-2.8-2.8 -1.6 0-2.8 1.3-2.8 2.8 0 1.6 1.3 2.8 2.8 2.8Zm161.9-23.1c1.6 0 2.8-1.3 2.8-2.8 0-1.6-1.3-2.8-2.8-2.8 -1.6 0-2.8 1.3-2.8 2.8 0 1.6 1.3 2.8 2.8 2.8Zm-117.7-14.1c1.6 0 2.8-1.3 2.8-2.8 0-1.6-1.3-2.8-2.8-2.8 -1.6 0-2.8 1.3-2.8 2.8 0 1.6 1.3 2.8 2.8 2.8Zm365.7-10.6c1.6 0 2.8-1.3 2.8-2.8 0-1.6-1.3-2.8-2.8-2.8 -1.6 0-2.8 1.3-2.8 2.8 0 1.6 1.3 2.8 2.8 2.8Zm-312.5-7.8c1.6 0 2.8-1.3 2.8-2.8 0-1.6-1.3-2.8-2.8-2.8 -1.6 0-2.8 1.3-2.8 2.8 0 1.6 1.3 2.8 2.8 2.8Zm-118.6 0c1.6 0 2.8-1.3 2.8-2.8 0-1.6-1.3-2.8-2.8-2.8 -1.6 0-2.8 1.3-2.8 2.8 0 1.6 1.3 2.8 2.8 2.8Zm318.6-2.8c1.6 0 2.8-1.3 2.8-2.8 0-1.6-1.3-2.8-2.8-2.8 -1.6 0-2.8 1.3-2.8 2.8 0 1.6 1.3 2.8 2.8 2.8Zm-72.9 0c1.6 0 2.8-1.3 2.8-2.8 0-1.6-1.3-2.8-2.8-2.8 -1.6 0-2.8 1.3-2.8 2.8 0 1.6 1.3 2.8 2.8 2.8Zm195.9-6.7c1.6 0 2.8-1.3 2.8-2.8 0-1.6-1.3-2.8-2.8-2.8 -1.6 0-2.8 1.3-2.8 2.8 0 1.6 1.3 2.8 2.8 2.8Zm-70.7-7.4c1.6 0 2.8-1.3 2.8-2.8 0-1.6-1.3-2.8-2.8-2.8 -1.6 0-2.8 1.3-2.8 2.8 0 1.6 1.3 2.8 2.8 2.8Zm-315.8-10.4c1.6 0 2.8-1.3 2.8-2.8 0-1.6-1.3-2.8-2.8-2.8 -1.6 0-2.8 1.3-2.8 2.8 0 1.6 1.3 2.8 2.8 2.8Zm138.4 0c1.6 0 2.8-1.3 2.8-2.8 0-1.6-1.3-2.8-2.8-2.8 -1.6 0-2.8 1.3-2.8 2.8 0 1.6 1.3 2.8 2.8 2.8Zm151.5-15.1c1.6 0 2.8-1.3 2.8-2.8 0-1.6-1.3-2.8-2.8-2.8 -1.6 0-2.8 1.3-2.8 2.8 0 1.6 1.3 2.8 2.8 2.8Zm-96.5-9.4c1.6 0 2.8-1.3 2.8-2.8 0-1.6-1.3-2.8-2.8-2.8 -1.6 0-2.8 1.3-2.8 2.8 0 1.6 1.3 2.8 2.8 2.8Zm245.2-15.8c1.6 0 2.8-1.3 2.8-2.8 0-1.6-1.3-2.8-2.8-2.8 -1.6 0-2.8 1.3-2.8 2.8 0 1.6 1.3 2.8 2.8 2.8Zm-49.3-9.3c1.6 0 2.8-1.3 2.8-2.8 0-1.6-1.3-2.8-2.8-2.8 -1.6 0-2.8 1.3-2.8 2.8 0 1.6 1.3 2.8 2.8 2.8Zm-41.4-22.6c1.6 0 2.8-1.3 2.8-2.8 0-1.6-1.3-2.8-2.8-2.8 -1.6 0-2.8 1.3-2.8 2.8 0 1.6 1.3 2.8 2.8 2.8Zm-308.8-9.2c1.6 0 2.8-1.3 2.8-2.8 0-1.6-1.3-2.8-2.8-2.8 -1.6 0-2.8 1.3-2.8 2.8 0 1.6 1.3 2.8 2.8 2.8Zm790.7-19.9c-1.6 0-2.8 1.3-2.8 2.8 0 1.6 1.3 2.8 2.8 2.8 1.6 0 2.8-1.3 2.8-2.8 0-1.6-1.3-2.8-2.8-2.8Zm-308.9-3c1.6 0 2.8-1.3 2.8-2.8 0-1.6-1.3-2.8-2.8-2.8 -1.6 0-2.8 1.3-2.8 2.8 0 1.6 1.3 2.8 2.8 2.8Zm-121.5 0c1.6 0 2.8-1.3 2.8-2.8 0-1.6-1.3-2.8-2.8-2.8 -1.6 0-2.8 1.3-2.8 2.8 0 1.6 1.3 2.8 2.8 2.8Zm92.4-17.1c1.6 0 2.8-1.3 2.8-2.8 0-1.6-1.3-2.8-2.8-2.8 -1.6 0-2.8 1.3-2.8 2.8 0 1.6 1.3 2.8 2.8 2.8Zm-53.1-20.2c1.6 0 2.8-1.3 2.8-2.8 0-1.6-1.3-2.8-2.8-2.8 -1.6 0-2.8 1.3-2.8 2.8 0 1.6 1.3 2.8 2.8 2.8Zm236.7-16.7c-1.6 0-2.8 1.3-2.8 2.8 0 1.6 1.3 2.8 2.8 2.8 1.6 0 2.8-1.3 2.8-2.8 0-1.6-1.3-2.8-2.8-2.8Zm-96.5-9.4c-1.6 0-2.8 1.3-2.8 2.8 0 1.6 1.3 2.8 2.8 2.8 1.6 0 2.8-1.3 2.8-2.8 0-1.6-1.3-2.8-2.8-2.8Zm151.5-15.1c-1.6 0-2.8 1.3-2.8 2.8 0 1.6 1.3 2.8 2.8 2.8 1.6 0 2.8-1.3 2.8-2.8 0-1.6-1.3-2.8-2.8-2.8Zm138.4 0c-1.6 0-2.8 1.3-2.8 2.8 0 1.6 1.3 2.8 2.8 2.8 1.6 0 2.8-1.3 2.8-2.8 0-1.6-1.3-2.8-2.8-2.8Zm-315.8-10.4c-1.6 0-2.8 1.3-2.8 2.8 0 1.6 1.3 2.8 2.8 2.8 1.6 0 2.8-1.3 2.8-2.8 0-1.6-1.3-2.8-2.8-2.8Zm-70.5-0.7c1.6 0 2.8-1.3 2.8-2.8 0-1.6-1.3-2.8-2.8-2.8 -1.6 0-2.8 1.3-2.8 2.8 0 1.6 1.3 2.8 2.8 2.8Zm195.6-13.4c-1.6 0-2.8 1.3-2.8 2.8 0 1.6 1.3 2.8 2.8 2.8 1.6 0 2.8-1.3 2.8-2.8 0-1.6-1.3-2.8-2.8-2.8Zm-72.9 0c-1.6 0-2.8 1.3-2.8 2.8 0 1.6 1.3 2.8 2.8 2.8 1.6 0 2.8-1.3 2.8-2.8 0-1.6-1.3-2.8-2.8-2.8Zm318.6-2.8c-1.6 0-2.8 1.3-2.8 2.8 0 1.6 1.3 2.8 2.8 2.8 1.6 0 2.8-1.3 2.8-2.8 0-1.6-1.3-2.8-2.8-2.8Zm-118.6 0c-1.6 0-2.8 1.3-2.8 2.8 0 1.6 1.3 2.8 2.8 2.8 1.6 0 2.8-1.3 2.8-2.8 0-1.6-1.3-2.8-2.8-2.8Zm-311.5-2.3c1.6 0 2.8-1.3 2.8-2.8 0-1.6-1.3-2.8-2.8-2.8 -1.6 0-2.8 1.3-2.8 2.8 0 1.6 1.3 2.8 2.8 2.8Zm364.7-16c-1.6 0-2.8 1.3-2.8 2.8 0 1.6 1.3 2.8 2.8 2.8 1.6 0 2.8-1.3 2.8-2.8 0-1.6-1.3-2.8-2.8-2.8Zm-117.7-14.1c-1.6 0-2.8 1.3-2.8 2.8 0 1.6 1.3 2.8 2.8 2.8 1.6 0 2.8-1.3 2.8-2.8 0-1.6-1.3-2.8-2.8-2.8Zm161.9-23.1c-1.6 0-2.8 1.3-2.8 2.8 0 1.6 1.3 2.8 2.8 2.8 1.6 0 2.8-1.3 2.8-2.8 0-1.6-1.3-2.8-2.8-2.8Zm44.7-5.6c-1.6 0-2.8 1.3-2.8 2.8 0 1.6 1.3 2.8 2.8 2.8 1.6 0 2.8-1.3 2.8-2.8 0-1.6-1.3-2.8-2.8-2.8Zm45.2-19.8c-1.6 0-2.8 1.3-2.8 2.8 0 1.6 1.3 2.8 2.8 2.8 1.6 0 2.8-1.3 2.8-2.8 0-1.6-1.3-2.8-2.8-2.8Zm-120.9-26.4c-1.6 0-2.8 1.3-2.8 2.8 0 1.6 1.3 2.8 2.8 2.8 1.6 0 2.8-1.3 2.8-2.8 0-1.6-1.3-2.8-2.8-2.8Zm184-14.6c-1.6 0-2.8 1.3-2.8 2.8 0 1.6 1.3 2.8 2.8 2.8 1.6 0 2.8-1.3 2.8-2.8 0-1.6-1.3-2.8-2.8-2.8Zm73.9-5.6c-1.6 0-2.8 1.3-2.8 2.8 0 1.6 1.3 2.8 2.8 2.8 1.6 0 2.8-1.3 2.8-2.8 0-1.6-1.3-2.8-2.8-2.8Zm-208.5-2.8c-1.6 0-2.8 1.3-2.8 2.8 0 1.6 1.3 2.8 2.8 2.8 1.6 0 2.8-1.3 2.8-2.8 0-1.6-1.3-2.8-2.8-2.8Zm254.6-12.2c-1.6 0-2.8 1.3-2.8 2.8 0 1.6 1.3 2.8 2.8 2.8 1.6 0 2.8-1.3 2.8-2.8 0-1.6-1.3-2.8-2.8-2.8Zm-164.7-5.6c-1.6 0-2.8 1.3-2.8 2.8 0 1.6 1.3 2.8 2.8 2.8 1.6 0 2.8-1.3 2.8-2.8 0-1.6-1.3-2.8-2.8-2.8Zm95.1-2.8c-1.6 0-2.8 1.3-2.8 2.8 0 1.6 1.3 2.8 2.8 2.8 1.6 0 2.8-1.3 2.8-2.8 0-1.6-1.3-2.8-2.8-2.8Zm53.2-36.2c-1.6 0-2.8 1.3-2.8 2.8 0 1.6 1.3 2.8 2.8 2.8 1.6 0 2.8-1.3 2.8-2.8 0-1.6-1.3-2.8-2.8-2.8Zm-89.4 0c-1.6 0-2.8 1.3-2.8 2.8 0 1.6 1.3 2.8 2.8 2.8 1.6 0 2.8-1.3 2.8-2.8 0-1.6-1.3-2.8-2.8-2.8Zm-116.7-12.7c-1.6 0-2.8 1.3-2.8 2.8 0 1.6 1.3 2.8 2.8 2.8 1.6 0 2.8-1.3 2.8-2.8 0-1.6-1.3-2.8-2.8-2.8Zm233.9-13.2c-1.6 0-2.8 1.3-2.8 2.8 0 1.6 1.3 2.8 2.8 2.8 1.6 0 2.8-1.3 2.8-2.8 0-1.6-1.3-2.8-2.8-2.8Zm-83.8-5.6c-1.6 0-2.8 1.3-2.8 2.8 0 1.6 1.3 2.8 2.8 2.8 1.6 0 2.8-1.3 2.8-2.8 0-1.6-1.3-2.8-2.8-2.8Zm56-13.6c-1.6 0-2.8 1.3-2.8 2.8 0 1.6 1.3 2.8 2.8 2.8 1.6 0 2.8-1.3 2.8-2.8 0-1.6-1.3-2.8-2.8-2.8Zm22.1-11.8c-1.6 0-2.8 1.3-2.8 2.8 0 1.6 1.3 2.8 2.8 2.8 1.6 0 2.8-1.3 2.8-2.8 0-1.6-1.3-2.8-2.8-2.8Zm-131.3-2.8c-1.6 0-2.8 1.3-2.8 2.8 0 1.6 1.3 2.8 2.8 2.8 1.6 0 2.8-1.3 2.8-2.8 0-1.6-1.3-2.8-2.8-2.8Z" fill="#ffffff"/></g></g></svg>