<svg width="100" height="100" viewBox="0 0 1440 868" xmlns="http://www.w3.org/2000/svg" style="clip-rule:evenodd;fill-rule:evenodd;stroke-linecap:round;stroke-linejoin:round;stroke-miterlimit:2;version:1"><style>.a{fill:none;stroke-width:0.5px;stroke:url(#Gradient2);}</style><linearGradient id="Gradient2" x1="0" x2="0" y1="0" y2="1">
        <stop offset="0%" stop-color="rgba(204, 220, 57, 0.4)"/>
        <stop offset="25%" stop-color="#64FFDA"/>
        <stop offset="50%" stop-color="#84FFFF"/>
        <stop offset="75%" stop-color="#1C97FF"/>
        <stop offset="100%" stop-color="rgba(0, 123, 255, 0.4)"/>
      </linearGradient><rect width="1440" height="868" fill="none"/><clipPath><rect width="1440" height="868"/></clipPath><g clip-path="url(#_clip1)"><g><path d="M0 84.1l50.9 1.1 44.1-41 105.8 20.4 49 58.9 37.1 67.4 52.3 24.6 56.6 3.8 53.9-48.3 69 18.3 70.6-18.9 35.3 31.1 92.5 16.9" class="a"/><path d="M0 84.1l5.6 45.5 45.3-44.4 40.9 21.9 67.5 22.3 -37.1 36.9 71.2 23.5 49.1 6.9 44.3-5.8 52.3 24.6 110.6-44.5 25.3 55.7 43.7-37.4 15.8 46.9 54.9-65.8 54.4-0.1 75.5 48.6" class="a"/><path d="M5 130.2l-4.2 47.5 48.4 3.1 16.8-29.2 25.6-44.6 3.4-62.8 64.3 85.2 34.1 60.4 56.3-66.2 54 9.6 146.1 37.9 -49.7 159.7 -59.2-68.7 55-42.7 -114.6 30.7 58-34.5 135.9 11.2 114.4-56.3 -193.6 49 -92.1-86.2 -16.8 57.7 -37.1-67.4 -7.6 73.6 -176.2-45.6 134.8-87 -149.9 20.6 -50.2 92.5 4.2-47.5 90-86 -95 40 37.5-62.8 57.5 22.8 -95 6.4 91.6 56.4 -91.5 96.9 49.1-23.1 73.2-14.6 127.4-42.6 31.4 126.5 -80.4-185.4 140.1 197.5 134.2-35.4 -75.1 104 134.5-94.6 90.2-34.7 19.1-31.2 52 71.7 13.7-96.2 -174.9 90.3 109.3-65.9 121.9 15" class="a"/><path d="M281.2 250l59.7 12.1 -1.7-46.6 60.5 114.8 189.8-159.9 104.7-38.3 -50.3 38.2" class="a"/><path d="M695.1 132.7l14.7 14.3 56.5 38.6 64.5 39.9 5 80.3 85.3-18.1 130.2 55.8 118.2-17.8 104.1 58.9 83.1 2.3 81.2 44.5" class="a"/><path d="M696.4 242.3l22-23.8 48.2 12.1 69.1 75.3 80.6 7.8 4.7-25.9 68.2-4.2 50.1 17.7 11.8 42.2 202.4 59.2 -84.2-76.9 -129.9-24.5 234.1 83.3 116.3-41.2 47.9 88.1 -81.2-44.5 33.3-43.6 -136.2 59.3 19.9-18 164.3 46.9" class="a"/><path d="M830.7 225.6l158.5 58.1 -222.6-53.1 154.3 57.2" class="a"/><path d="M766.6 230.6l-0.4-44.9" class="a"/><path d="M766.2 185.7l-47.8 32.7" class="a"/><path d="M916.3 313.8l123.1-12.4" class="a"/><path d="M1440 429.3l0 4.7 -4.7 0 0-4.7 4.7 0Zm-184.9-29.1l0 4.7 -4.7 0 0-4.7 4.7 0Zm103.8-15.4l0 4.7 -4.7 0 0-4.7 4.7 0Zm-83.1-2.3l0 4.7 -4.7 0 0-4.7 4.7 0Zm-222.1-41.6l0 4.7 -4.7 0 0-4.7 4.7 0Zm337.8 0l0 4.7 -4.7 0 0-4.7 4.7 0Zm-992.2-12.7c1.5-0.4 3.1 0.5 3.5 2 0.4 1.5-0.5 3.1-2 3.5 -1.5 0.4-3.1-0.5-3.5-2 -0.4-1.5 0.5-3.1 2-3.5Zm772.3-5l0 4.7 -4.7 0 0-4.7 4.7 0Zm-252.8-11.5l0 4.7 -4.7 0 0-4.7 4.7 0Zm-80.8-8.2l0 4.7 -4.7 0 0-4.7 4.7 0Zm203.6-4.7l0 4.7 -4.7 0 0-4.7 4.7 0Zm-118.1-13.3l0 4.7 -4.7 0 0-4.7 4.7 0Zm68.1-4.7l0 4.7 -4.7 0 0-4.7 4.7 0Zm-651-21.2c1.5-0.4 3.1 0.5 3.5 2 0.4 1.5-0.5 3.1-2 3.5 -1.5 0.4-3.1-0.5-3.5-2 -0.4-1.5 0.5-3.1 2-3.5Zm-60.3-12.1c1.5-0.4 3.1 0.5 3.5 2 0.4 1.5-0.5 3.1-2 3.5 -1.5 0.4-3.1-0.5-3.5-2 -0.4-1.5 0.5-3.1 2-3.5Zm415.6-7.9c1.5-0.4 3.1 0.5 3.5 2 0.4 1.5-0.5 3.1-2 3.5 -1.5 0.4-3.1-0.5-3.5-2 -0.4-1.5 0.5-3.1 2-3.5Zm-162.1-6.4c1.5-0.4 3.1 0.5 3.5 2 0.4 1.5-0.5 3.1-2 3.5 -1.5 0.4-3.1-0.5-3.5-2 -0.4-1.5 0.5-3.1 2-3.5Zm234.7-5.2l0 4.7 -4.7 0 0-4.7 4.7 0Zm-294.2-4.2c1.5-0.4 3.1 0.5 3.5 2 0.4 1.5-0.5 3.1-2 3.5 -1.5 0.4-3.1-0.5-3.5-2 -0.4-1.5 0.5-3.1 2-3.5Zm359.1-0.5l0 4.7 -4.7 0 0-4.7 4.7 0Zm-438.4-6.5c1.5-0.4 3.1 0.5 3.5 2 0.4 1.5-0.5 3.1-2 3.5 -1.5 0.4-3.1-0.5-3.5-2 -0.4-1.5 0.5-3.1 2-3.5Zm322.9-1c1.5-0.4 3.1 0.5 3.5 2 0.4 1.5-0.5 3.1-2 3.5 -1.5 0.4-3.1-0.5-3.5-2 -0.4-1.5 0.5-3.1 2-3.5Zm-379-3c1.5-0.4 3.1 0.5 3.5 2 0.4 1.5-0.5 3.1-2 3.5 -1.5 0.4-3.1-0.5-3.5-2 -0.4-1.5 0.5-3.1 2-3.5Zm285.7-13.7c1.5-0.4 3.1 0.5 3.5 2 0.4 1.5-0.5 3.1-2 3.5 -1.5 0.4-3.1-0.5-3.5-2 -0.4-1.5 0.5-3.1 2-3.5Zm-382.7-4.6c1.5-0.4 3.1 0.5 3.5 2 0.4 1.5-0.5 3.1-2 3.5 -1.5 0.4-3.1-0.5-3.5-2 -0.4-1.5 0.5-3.1 2-3.5Zm44.6-6.1c1.5-0.4 3.1 0.5 3.5 2 0.4 1.5-0.5 3.1-2 3.5 -1.5 0.4-3.1-0.5-3.5-2 -0.4-1.5 0.5-3.1 2-3.5Zm-93.4-1.3c1.5-0.4 3.1 0.5 3.5 2 0.4 1.5-0.5 3.1-2 3.5 -1.5 0.4-3.1-0.5-3.5-2 -0.4-1.5 0.5-3.1 2-3.5Zm325.3-0.4c1.5-0.4 3.1 0.5 3.5 2 0.4 1.5-0.5 3.1-2 3.5 -1.5 0.4-3.1-0.5-3.5-2 -0.4-1.5 0.5-3.1 2-3.5Zm247-3.8c1.5-0.4 3.1 0.5 3.5 2 0.4 1.5-0.5 3.1-2 3.5 -1.5 0.4-3.1-0.5-3.5-2 -0.4-1.5 0.5-3.1 2-3.5Zm-716.7-5.3c1.5-0.4 3.1 0.5 3.5 2 0.4 1.5-0.5 3.1-2 3.5 -1.5 0.4-3.1-0.5-3.5-2 -0.4-1.5 0.5-3.1 2-3.5Zm-48.4-2.6c1.5-0.4 3.1 0.5 3.5 2 0.4 1.5-0.5 3.1-2 3.5 -1.5 0.4-3.1-0.5-3.5-2 -0.4-1.5 0.5-3.1 2-3.5Zm448.5-6.2c1.5-0.4 3.1 0.5 3.5 2 0.4 1.5-0.5 3.1-2 3.5 -1.5 0.4-3.1-0.5-3.5-2 -0.4-1.5 0.5-3.1 2-3.5Zm140.1-1c1.5-0.4 3.1 0.5 3.5 2 0.4 1.5-0.5 3.1-2 3.5 -1.5 0.4-3.1-0.5-3.5-2 -0.4-1.5 0.5-3.1 2-3.5Zm54.7-0.2c1.5-0.4 3.1 0.5 3.5 2 0.4 1.5-0.5 3.1-2 3.5 -1.5 0.4-3.1-0.5-3.5-2 -0.4-1.5 0.5-3.1 2-3.5Zm-522-3.7c1.5-0.4 3.1 0.5 3.5 2 0.4 1.5-0.5 3.1-2 3.5 -1.5 0.4-3.1-0.5-3.5-2 -0.4-1.5 0.5-3.1 2-3.5Zm-56.2-15.2c1.5-0.4 3.1 0.5 3.5 2 0.4 1.5-0.5 3.1-2 3.5 -1.5 0.4-3.1-0.5-3.5-2 -0.4-1.5 0.5-3.1 2-3.5Zm643.4-4.5c1.5-0.4 3.1 0.5 3.5 2 0.4 1.5-0.5 3.1-2 3.5 -1.5 0.4-3.1-0.5-3.5-2 -0.4-1.5 0.5-3.1 2-3.5Zm-405.7-13.9c1.5-0.4 3.1 0.5 3.5 2 0.4 1.5-0.5 3.1-2 3.5 -1.5 0.4-3.1-0.5-3.5-2 -0.4-1.5 0.5-3.1 2-3.5Zm390.8-0.3c1.5-0.4 3.1 0.5 3.5 2 0.4 1.5-0.5 3.1-2 3.5 -1.5 0.4-3.1-0.5-3.5-2 -0.4-1.5 0.5-3.1 2-3.5Zm-689.3-2.6c1.5-0.4 3.1 0.5 3.5 2 0.4 1.5-0.5 3.1-2 3.5 -1.5 0.4-3.1-0.5-3.5-2 -0.4-1.5 0.5-3.1 2-3.5Zm153.3-0.6c1.5-0.4 3.1 0.5 3.5 2 0.4 1.5-0.5 3.1-2 3.5 -1.5 0.4-3.1-0.5-3.5-2 -0.4-1.5 0.5-3.1 2-3.5Zm91.5-6c1.5-0.4 3.1 0.5 3.5 2 0.4 1.5-0.5 3.1-2 3.5 -1.5 0.4-3.1-0.5-3.5-2 -0.4-1.5 0.5-3.1 2-3.5Zm-158.4-16.5c1.5-0.4 3.1 0.5 3.5 2 0.4 1.5-0.5 3.1-2 3.5 -1.5 0.4-3.1-0.5-3.5-2 -0.4-1.5 0.5-3.1 2-3.5Zm-40.4-21.8c1.5-0.4 3.1 0.5 3.5 2 0.4 1.5-0.5 3.1-2 3.5 -1.5 0.4-3.1-0.5-3.5-2 -0.4-1.5 0.5-3.1 2-3.5Zm149.9-20.7c1.5-0.4 3.1 0.5 3.5 2 0.4 1.5-0.5 3.1-2 3.5 -1.5 0.4-3.1-0.5-3.5-2 -0.4-1.5 0.5-3.1 2-3.5Zm-105.8-20.4c1.5-0.4 3.1 0.5 3.5 2 0.4 1.5-0.5 3.1-2 3.5 -1.5 0.4-3.1-0.5-3.5-2 -0.4-1.5 0.5-3.1 2-3.5Z" fill="url(#Gradient2)"/><path d="M37.5 21.3l-37.5 29.3" class="a"/></g></g></svg>