<svg width="100" height="100" viewBox="0 0 1440 868" xmlns="http://www.w3.org/2000/svg" style="clip-rule:evenodd;fill-rule:evenodd;stroke-linecap:round;stroke-miterlimit:2;version:1">
<linearGradient id="Gradient2" x1="0" x2="0" y1="0" y2="1">
        <stop offset="0%" stop-color="#007BFF"/>
        <stop offset="25%" stop-color="#1C97FF"/>
        <stop offset="50%" stop-color="#84FFFF"/>
        <stop offset="75%" stop-color="#64FFDA"/>
        <stop offset="100%" stop-color="#CDDC39"/>
      </linearGradient>
      <style>.a{fill:none;stroke-width:0.8px;stroke:url(#Gradient2);}</style><rect width="1440" height="868" fill="none"/><clipPath><rect width="1440" height="868"/></clipPath><g clip-path="url(#_clip1)"><g><rect x="1" y="759.6" width="107.5" height="107.5" class="a"/><rect x="70.3" y="582.9" width="215" height="215" class="a"/><rect x="20.4" y="690.2" width="157.6" height="157.6" class="a"/><rect x="41.4" y="503.9" width="322.8" height="322.8" class="a"/><rect x="1223.9" y="652.1" width="215" height="215" class="a"/><rect x="1175.5" y="690.2" width="96.8" height="96.8" class="a"/><rect x="984.1" y="801.5" width="136.8" height="136.8" class="a"/><rect x="-49.2" y="296.4" width="90.6" height="90.6" class="a"/><rect x="1403.3" y="422.9" width="45.3" height="45.3" class="a"/><rect x="1293.2" y="449.2" width="220.1" height="220.1" class="a"/><rect x="1165.4" y="541.5" width="176.2" height="176.2" class="a"/><rect x="1096.1" y="665.3" width="94.3" height="94.3" class="a"/><rect x="1077.6" y="740.3" width="253.8" height="253.8" class="a"/><rect x="196.3" y="753.5" width="215" height="215" class="a"/><rect x="-87.9" y="327.8" width="311.9" height="311.9" class="a"/><rect x="1241.5" y="342.5" width="245.9" height="245.9" class="a"/></g><path d="M180.3 850.1l-4.7 0 0-4.7 4.7 0 0 4.7Zm-157.6 0l-4.7 0 0-4.7 4.7 0 0 4.7Zm343.1-20.9l-4.7 0 0-4.7 4.7 0 0 4.7Zm-322.6 0l-4.7 0 0-4.7 4.7 0 0 4.7Zm1079.8-25.1l-4.7 0 0-4.7 4.7 0 0 4.7Zm-136.8 0l-4.7 0 0-4.7 4.7 0 0 4.7Zm-913.6-3.9l-4.7 0 0-4.7 4.7 0 0 4.7Zm215.2-0.1l-4.7 0 0-4.7 4.7 0 0 4.7Zm889.9-11.3l-4.7 0 0-4.7 4.7 0 0 4.7Zm96.9 0l-4.7 0 0-4.7 4.7 0 0 4.7Zm-1163.8-26.4l-4.7 0 0-4.7 4.7 0 0 4.7Zm987.8-0.5l-4.7 0 0-4.7 4.7 0 0 4.7Zm94 0l-4.7 0 0-4.7 4.7 0 0 4.7Zm-779.1-6.1l-4.7 0 0-4.7 4.7 0 0 4.7Zm-215 0l-4.7 0 0-4.7 4.7 0 0 4.7Zm1135.3-13.6l-4.7 0 0-4.7 4.7 0 0 4.7Zm-253.6 0l-4.7 0 0-4.7 4.7 0 0 4.7Zm263.7-22l-4.7 0 0-4.7 4.7 0 0 4.7Zm-176.3 0l-4.7 0 0-4.7 4.7 0 0 4.7Zm107-27.2l-4.7 0 0-4.7 4.7 0 0 4.7Zm-1251.9-0.2l-4.7 0 0-4.7 4.7 0 0 4.7Zm157.4 0l-4.7 0 0-4.7 4.7 0 0 4.7Zm997.6-0.4l-4.7 0 0-4.7 4.7 0 0 4.7Zm117.8-20.6l-4.7 0 0-4.7 4.7 0 0 4.7Zm-128.1-3.7l-4.7 0 0-4.7 4.7 0 0 4.7Zm25.1 0l-4.7 0 0-4.7 4.7 0 0 4.7Zm-93.8-1l-4.7 0 0-4.7 4.7 0 0 4.7Zm127.8-12.4l-4.7 0 0-4.7 4.7 0 0 4.7Zm-1000.4-13l-4.7 0 0-4.7 4.7 0 0 4.7Zm1017.7-50.8l-4.7 0 0-4.7 4.7 0 0 4.7Zm-956.1-5.6l-4.7 0 0-4.7 4.7 0 0 4.7Zm-215 0l-4.7 0 0-4.7 4.7 0 0 4.7Zm1094.8-41.1l-4.7 0 0-4.7 4.7 0 0 4.7Zm176.6 0l-4.7 0 0-4.7 4.7 0 0 4.7Zm-1300.2-37.8l-4.7 0 0-4.7 4.7 0 0 4.7Zm322.8 0l-4.7 0 0-4.7 4.7 0 0 4.7Zm1038.9-36.1l-4.7 0 0-4.7 4.7 0 0 4.7Zm-109.9-18.6l-4.7 0 0-4.7 4.7 0 0 4.7Zm109.9-26.1l-4.7 0 0-4.7 4.7 0 0 4.7Zm-1361.6-35.9l-4.7 0 0-4.7 4.7 0 0 4.7Zm1200.2-44.7l-4.7 0 0-4.7 4.7 0 0 4.7Zm-1017.9-14.5l-4.7 0 0-4.7 4.7 0 0 4.7Zm-182.2-31.5l-4.7 0 0-4.7 4.7 0 0 4.7Z" fill="url(#Gradient2)"/></g></svg>