<svg width="100" height="100" viewBox="0 0 1440 868" xmlns="http://www.w3.org/2000/svg" style="clip-rule:evenodd;fill-rule:evenodd;stroke-linecap:round;stroke-miterlimit:2;version:1">
	<linearGradient id="Gradient2" x1="0" x2="0" y1="0" y2="1">
        <stop offset="0%" stop-color="#007BFF"/>
        <stop offset="25%" stop-color="#1C97FF"/>
        <stop offset="50%" stop-color="#84FFFF"/>
        <stop offset="75%" stop-color="#64FFDA"/>
        <stop offset="100%" stop-color="#CDDC39"/>
      </linearGradient>
      <style>
	.a{fill:none;stroke-width:0.8px;stroke:url(#Gradient2);}</style><rect width="1440" height="868" fill="none"/><clipPath><rect width="1440" height="868"/></clipPath><g clip-path="url(#_clip1)"><path d="M20.1 868c1.6 0 2.8-1.3 2.8-2.8 0-1.6-1.3-2.8-2.8-2.8 -1.6 0-2.8 1.3-2.8 2.8 0 1.6 1.3 2.8 2.8 2.8Zm88.6-53.1c1.6 0 2.8-1.3 2.8-2.8 0-1.6-1.3-2.8-2.8-2.8 -1.6 0-2.8 1.3-2.8 2.8 0 1.6 1.3 2.8 2.8 2.8Zm-131.3-2.8c1.6 0 2.8-1.3 2.8-2.8 0-1.6-1.3-2.8-2.8-2.8 -1.6 0-2.8 1.3-2.8 2.8 0 1.6 1.3 2.8 2.8 2.8Zm22.1-11.8c1.6 0 2.8-1.3 2.8-2.8 0-1.6-1.3-2.8-2.8-2.8 -1.6 0-2.8 1.3-2.8 2.8 0 1.6 1.3 2.8 2.8 2.8Zm56-13.6c1.6 0 2.8-1.3 2.8-2.8 0-1.6-1.3-2.8-2.8-2.8 -1.6 0-2.8 1.3-2.8 2.8 0 1.6 1.3 2.8 2.8 2.8Zm-83.8-5.6c1.6 0 2.8-1.3 2.8-2.8 0-1.6-1.3-2.8-2.8-2.8 -1.6 0-2.8 1.3-2.8 2.8 0 1.6 1.3 2.8 2.8 2.8Zm233.9-13.2c1.6 0 2.8-1.3 2.8-2.8 0-1.6-1.3-2.8-2.8-2.8 -1.6 0-2.8 1.3-2.8 2.8 0 1.6 1.3 2.8 2.8 2.8Zm-206.1-12.7c1.6 0 2.8-1.3 2.8-2.8 0-1.6-1.3-2.8-2.8-2.8 -1.6 0-2.8 1.3-2.8 2.8 0 1.6 1.3 2.8 2.8 2.8Zm89.2-0.1c1.6 0 2.8-1.3 2.8-2.8 0-1.6-1.3-2.8-2.8-2.8 -1.6 0-2.8 1.3-2.8 2.8 0 1.6 1.3 2.8 2.8 2.8Zm-36-36.1c1.6 0 2.8-1.3 2.8-2.8 0-1.6-1.3-2.8-2.8-2.8 -1.6 0-2.8 1.3-2.8 2.8 0 1.6 1.3 2.8 2.8 2.8Zm95.1-2.8c1.6 0 2.8-1.3 2.8-2.8 0-1.6-1.3-2.8-2.8-2.8 -1.6 0-2.8 1.3-2.8 2.8 0 1.6 1.3 2.8 2.8 2.8Zm-164.7-5.6c1.6 0 2.8-1.3 2.8-2.8 0-1.6-1.3-2.8-2.8-2.8 -1.6 0-2.8 1.3-2.8 2.8 0 1.6 1.3 2.8 2.8 2.8Zm254.6-12.2c1.6 0 2.8-1.3 2.8-2.8 0-1.6-1.3-2.8-2.8-2.8 -1.6 0-2.8 1.3-2.8 2.8 0 1.6 1.3 2.8 2.8 2.8Zm-208.5-2.8c1.6 0 2.8-1.3 2.8-2.8 0-1.6-1.3-2.8-2.8-2.8 -1.6 0-2.8 1.3-2.8 2.8 0 1.6 1.3 2.8 2.8 2.8Zm73.9-5.6c1.6 0 2.8-1.3 2.8-2.8 0-1.6-1.3-2.8-2.8-2.8 -1.6 0-2.8 1.3-2.8 2.8 0 1.6 1.3 2.8 2.8 2.8Zm184-14.6c1.6 0 2.8-1.3 2.8-2.8 0-1.6-1.3-2.8-2.8-2.8 -1.6 0-2.8 1.3-2.8 2.8 0 1.6 1.3 2.8 2.8 2.8Zm-120.9-26.4c1.6 0 2.8-1.3 2.8-2.8 0-1.6-1.3-2.8-2.8-2.8 -1.6 0-2.8 1.3-2.8 2.8 0 1.6 1.3 2.8 2.8 2.8Zm45.2-19.8c1.6 0 2.8-1.3 2.8-2.8 0-1.6-1.3-2.8-2.8-2.8 -1.6 0-2.8 1.3-2.8 2.8 0 1.6 1.3 2.8 2.8 2.8Zm44.7-5.6c1.6 0 2.8-1.3 2.8-2.8 0-1.6-1.3-2.8-2.8-2.8 -1.6 0-2.8 1.3-2.8 2.8 0 1.6 1.3 2.8 2.8 2.8Zm161.9-23.1c1.6 0 2.8-1.3 2.8-2.8 0-1.6-1.3-2.8-2.8-2.8 -1.6 0-2.8 1.3-2.8 2.8 0 1.6 1.3 2.8 2.8 2.8Zm-117.7-14.1c1.6 0 2.8-1.3 2.8-2.8 0-1.6-1.3-2.8-2.8-2.8 -1.6 0-2.8 1.3-2.8 2.8 0 1.6 1.3 2.8 2.8 2.8Zm365.7-10.6c1.6 0 2.8-1.3 2.8-2.8 0-1.6-1.3-2.8-2.8-2.8 -1.6 0-2.8 1.3-2.8 2.8 0 1.6 1.3 2.8 2.8 2.8Zm-312.5-7.8c1.6 0 2.8-1.3 2.8-2.8 0-1.6-1.3-2.8-2.8-2.8 -1.6 0-2.8 1.3-2.8 2.8 0 1.6 1.3 2.8 2.8 2.8Zm-118.6 0c1.6 0 2.8-1.3 2.8-2.8 0-1.6-1.3-2.8-2.8-2.8 -1.6 0-2.8 1.3-2.8 2.8 0 1.6 1.3 2.8 2.8 2.8Zm318.6-2.8c1.6 0 2.8-1.3 2.8-2.8 0-1.6-1.3-2.8-2.8-2.8 -1.6 0-2.8 1.3-2.8 2.8 0 1.6 1.3 2.8 2.8 2.8Zm-72.9 0c1.6 0 2.8-1.3 2.8-2.8 0-1.6-1.3-2.8-2.8-2.8 -1.6 0-2.8 1.3-2.8 2.8 0 1.6 1.3 2.8 2.8 2.8Zm195.9-6.7c1.6 0 2.8-1.3 2.8-2.8 0-1.6-1.3-2.8-2.8-2.8 -1.6 0-2.8 1.3-2.8 2.8 0 1.6 1.3 2.8 2.8 2.8Zm-70.7-7.4c1.6 0 2.8-1.3 2.8-2.8 0-1.6-1.3-2.8-2.8-2.8 -1.6 0-2.8 1.3-2.8 2.8 0 1.6 1.3 2.8 2.8 2.8Zm-315.8-10.4c1.6 0 2.8-1.3 2.8-2.8 0-1.6-1.3-2.8-2.8-2.8 -1.6 0-2.8 1.3-2.8 2.8 0 1.6 1.3 2.8 2.8 2.8Zm138.4 0c1.6 0 2.8-1.3 2.8-2.8 0-1.6-1.3-2.8-2.8-2.8 -1.6 0-2.8 1.3-2.8 2.8 0 1.6 1.3 2.8 2.8 2.8Zm151.5-15.1c1.6 0 2.8-1.3 2.8-2.8 0-1.6-1.3-2.8-2.8-2.8 -1.6 0-2.8 1.3-2.8 2.8 0 1.6 1.3 2.8 2.8 2.8Zm-96.5-9.4c1.6 0 2.8-1.3 2.8-2.8 0-1.6-1.3-2.8-2.8-2.8 -1.6 0-2.8 1.3-2.8 2.8 0 1.6 1.3 2.8 2.8 2.8Zm245.2-15.8c1.6 0 2.8-1.3 2.8-2.8 0-1.6-1.3-2.8-2.8-2.8 -1.6 0-2.8 1.3-2.8 2.8 0 1.6 1.3 2.8 2.8 2.8Zm-49.3-9.3c1.6 0 2.8-1.3 2.8-2.8 0-1.6-1.3-2.8-2.8-2.8 -1.6 0-2.8 1.3-2.8 2.8 0 1.6 1.3 2.8 2.8 2.8Zm-41.4-22.6c1.6 0 2.8-1.3 2.8-2.8 0-1.6-1.3-2.8-2.8-2.8 -1.6 0-2.8 1.3-2.8 2.8 0 1.6 1.3 2.8 2.8 2.8Zm-308.8-9.2c1.6 0 2.8-1.3 2.8-2.8 0-1.6-1.3-2.8-2.8-2.8 -1.6 0-2.8 1.3-2.8 2.8 0 1.6 1.3 2.8 2.8 2.8Zm790.7-19.9c-1.6 0-2.8 1.3-2.8 2.8 0 1.6 1.3 2.8 2.8 2.8 1.6 0 2.8-1.3 2.8-2.8 0-1.6-1.3-2.8-2.8-2.8Zm-308.9-3c1.6 0 2.8-1.3 2.8-2.8 0-1.6-1.3-2.8-2.8-2.8 -1.6 0-2.8 1.3-2.8 2.8 0 1.6 1.3 2.8 2.8 2.8Zm-121.5 0c1.6 0 2.8-1.3 2.8-2.8 0-1.6-1.3-2.8-2.8-2.8 -1.6 0-2.8 1.3-2.8 2.8 0 1.6 1.3 2.8 2.8 2.8Zm92.4-17.1c1.6 0 2.8-1.3 2.8-2.8 0-1.6-1.3-2.8-2.8-2.8 -1.6 0-2.8 1.3-2.8 2.8 0 1.6 1.3 2.8 2.8 2.8Zm-53.1-20.2c1.6 0 2.8-1.3 2.8-2.8 0-1.6-1.3-2.8-2.8-2.8 -1.6 0-2.8 1.3-2.8 2.8 0 1.6 1.3 2.8 2.8 2.8Zm236.7-16.7c-1.6 0-2.8 1.3-2.8 2.8 0 1.6 1.3 2.8 2.8 2.8 1.6 0 2.8-1.3 2.8-2.8 0-1.6-1.3-2.8-2.8-2.8Zm-96.5-9.4c-1.6 0-2.8 1.3-2.8 2.8 0 1.6 1.3 2.8 2.8 2.8 1.6 0 2.8-1.3 2.8-2.8 0-1.6-1.3-2.8-2.8-2.8Zm151.5-15.1c-1.6 0-2.8 1.3-2.8 2.8 0 1.6 1.3 2.8 2.8 2.8 1.6 0 2.8-1.3 2.8-2.8 0-1.6-1.3-2.8-2.8-2.8Zm138.4 0c-1.6 0-2.8 1.3-2.8 2.8 0 1.6 1.3 2.8 2.8 2.8 1.6 0 2.8-1.3 2.8-2.8 0-1.6-1.3-2.8-2.8-2.8Zm-315.8-10.4c-1.6 0-2.8 1.3-2.8 2.8 0 1.6 1.3 2.8 2.8 2.8 1.6 0 2.8-1.3 2.8-2.8 0-1.6-1.3-2.8-2.8-2.8Zm-70.5-0.7c1.6 0 2.8-1.3 2.8-2.8 0-1.6-1.3-2.8-2.8-2.8 -1.6 0-2.8 1.3-2.8 2.8 0 1.6 1.3 2.8 2.8 2.8Zm195.6-13.4c-1.6 0-2.8 1.3-2.8 2.8 0 1.6 1.3 2.8 2.8 2.8 1.6 0 2.8-1.3 2.8-2.8 0-1.6-1.3-2.8-2.8-2.8Zm-72.9 0c-1.6 0-2.8 1.3-2.8 2.8 0 1.6 1.3 2.8 2.8 2.8 1.6 0 2.8-1.3 2.8-2.8 0-1.6-1.3-2.8-2.8-2.8Zm318.6-2.8c-1.6 0-2.8 1.3-2.8 2.8 0 1.6 1.3 2.8 2.8 2.8 1.6 0 2.8-1.3 2.8-2.8 0-1.6-1.3-2.8-2.8-2.8Zm-118.6 0c-1.6 0-2.8 1.3-2.8 2.8 0 1.6 1.3 2.8 2.8 2.8 1.6 0 2.8-1.3 2.8-2.8 0-1.6-1.3-2.8-2.8-2.8Zm-311.5-2.3c1.6 0 2.8-1.3 2.8-2.8 0-1.6-1.3-2.8-2.8-2.8 -1.6 0-2.8 1.3-2.8 2.8 0 1.6 1.3 2.8 2.8 2.8Zm364.7-16c-1.6 0-2.8 1.3-2.8 2.8 0 1.6 1.3 2.8 2.8 2.8 1.6 0 2.8-1.3 2.8-2.8 0-1.6-1.3-2.8-2.8-2.8Zm-117.7-14.1c-1.6 0-2.8 1.3-2.8 2.8 0 1.6 1.3 2.8 2.8 2.8 1.6 0 2.8-1.3 2.8-2.8 0-1.6-1.3-2.8-2.8-2.8Zm161.9-23.1c-1.6 0-2.8 1.3-2.8 2.8 0 1.6 1.3 2.8 2.8 2.8 1.6 0 2.8-1.3 2.8-2.8 0-1.6-1.3-2.8-2.8-2.8Zm44.7-5.6c-1.6 0-2.8 1.3-2.8 2.8 0 1.6 1.3 2.8 2.8 2.8 1.6 0 2.8-1.3 2.8-2.8 0-1.6-1.3-2.8-2.8-2.8Zm45.2-19.8c-1.6 0-2.8 1.3-2.8 2.8 0 1.6 1.3 2.8 2.8 2.8 1.6 0 2.8-1.3 2.8-2.8 0-1.6-1.3-2.8-2.8-2.8Zm-120.9-26.4c-1.6 0-2.8 1.3-2.8 2.8 0 1.6 1.3 2.8 2.8 2.8 1.6 0 2.8-1.3 2.8-2.8 0-1.6-1.3-2.8-2.8-2.8Zm184-14.6c-1.6 0-2.8 1.3-2.8 2.8 0 1.6 1.3 2.8 2.8 2.8 1.6 0 2.8-1.3 2.8-2.8 0-1.6-1.3-2.8-2.8-2.8Zm73.9-5.6c-1.6 0-2.8 1.3-2.8 2.8 0 1.6 1.3 2.8 2.8 2.8 1.6 0 2.8-1.3 2.8-2.8 0-1.6-1.3-2.8-2.8-2.8Zm-208.5-2.8c-1.6 0-2.8 1.3-2.8 2.8 0 1.6 1.3 2.8 2.8 2.8 1.6 0 2.8-1.3 2.8-2.8 0-1.6-1.3-2.8-2.8-2.8Zm254.6-12.2c-1.6 0-2.8 1.3-2.8 2.8 0 1.6 1.3 2.8 2.8 2.8 1.6 0 2.8-1.3 2.8-2.8 0-1.6-1.3-2.8-2.8-2.8Zm-164.7-5.6c-1.6 0-2.8 1.3-2.8 2.8 0 1.6 1.3 2.8 2.8 2.8 1.6 0 2.8-1.3 2.8-2.8 0-1.6-1.3-2.8-2.8-2.8Zm95.1-2.8c-1.6 0-2.8 1.3-2.8 2.8 0 1.6 1.3 2.8 2.8 2.8 1.6 0 2.8-1.3 2.8-2.8 0-1.6-1.3-2.8-2.8-2.8Zm53.2-36.2c-1.6 0-2.8 1.3-2.8 2.8 0 1.6 1.3 2.8 2.8 2.8 1.6 0 2.8-1.3 2.8-2.8 0-1.6-1.3-2.8-2.8-2.8Zm-89.4 0c-1.6 0-2.8 1.3-2.8 2.8 0 1.6 1.3 2.8 2.8 2.8 1.6 0 2.8-1.3 2.8-2.8 0-1.6-1.3-2.8-2.8-2.8Zm-116.7-12.7c-1.6 0-2.8 1.3-2.8 2.8 0 1.6 1.3 2.8 2.8 2.8 1.6 0 2.8-1.3 2.8-2.8 0-1.6-1.3-2.8-2.8-2.8Zm233.9-13.2c-1.6 0-2.8 1.3-2.8 2.8 0 1.6 1.3 2.8 2.8 2.8 1.6 0 2.8-1.3 2.8-2.8 0-1.6-1.3-2.8-2.8-2.8Zm-83.8-5.6c-1.6 0-2.8 1.3-2.8 2.8 0 1.6 1.3 2.8 2.8 2.8 1.6 0 2.8-1.3 2.8-2.8 0-1.6-1.3-2.8-2.8-2.8Zm56-13.6c-1.6 0-2.8 1.3-2.8 2.8 0 1.6 1.3 2.8 2.8 2.8 1.6 0 2.8-1.3 2.8-2.8 0-1.6-1.3-2.8-2.8-2.8Zm22.1-11.8c-1.6 0-2.8 1.3-2.8 2.8 0 1.6 1.3 2.8 2.8 2.8 1.6 0 2.8-1.3 2.8-2.8 0-1.6-1.3-2.8-2.8-2.8Zm-131.3-2.8c-1.6 0-2.8 1.3-2.8 2.8 0 1.6 1.3 2.8 2.8 2.8 1.6 0 2.8-1.3 2.8-2.8 0-1.6-1.3-2.8-2.8-2.8Z" fill="url(#Gradient2)"/><g><path d="M1464 15.9l-124.2 70.4 -39.1 98.8 -18.4 67.3 -45.2 19.8 -44.7 5.6 -44.2 37.2 -53.2 18.4 -64.5-32.5 -62.6 35.3 -72.9 0 -26.4 39.5 -25.9-25.4 -59.2-24.9 -11.2 18.5 -43.9 52.2 -39.3 37.3 -10.1 54.6 -73.5 59.9 -52.2 14.1 -125.2-24.5 -74.8 27.3 -63.5-27.3 -55.1 27.3 2.8 130.4 -89.9 17.9 -95.1 2.8 -23.5-23.5 -29.6 59.8 -69.4-33.4" class="a"/><path d="M1476.8 70.1l-83.8 44.5 -53.2-28.2 -96.9 47.1 -32 69.7 26.4 69.2 -23.5 61.2 -65.4-18.4 -117.7-14.1 -10.4 59.8 99.3 81.4 -154.4-56.9 -96.5-9.4 -58 57.8 -29.1-17.1 -53.1-20.2 0 101.2 -90.7-31.9 38.6 90 -96.6-32.8 -96.5-9.4 -65.4 84.2 -161.9 23.1 44.2-37.2 -13.2 88.9 -120.9-26.4 -77.4 106.4 -33.2 31.5 -56 13.6 -24.9-18.1" class="a"/><path d="M1479.6 37.1l-83.8 145.2 -36.2-36.2 -19.8-59.8 5.6 125.2 -44.7-26.4 -89.9 17.9 71.5 49.4 -120.9-26.4 31.1 51.8 21.2 55.5 -55.1 27.3 -10.4-45.7 -28.7 127.1 -24.5-108.7 -74.8 27.3 -52.2-24.5 -2.8 48.9 -70.1-48.9 -52.2 14.1 -61.2 66.1 -9.2-72.4 38.3 89.5 -82.2 63.9 -39.3-63.6 -51.5 31.7 -32.1 82.6 60.3 24.7 13.3-84.7 -99.4 34.5 -26.4 39.5 -70.1-48.9 -2.8 48.9 -52.2-24.5 -10.4 59.8 -64.5-32.5 -53.2 18.4 -10.4-45.7 -33.9 82.8 -44.7 5.6 75.8 46.1 -49.4 23.1 -32 69.7 -39.5-119.1 -18.4 67.3 -44.7-26.4 -14.3 65.3 19.9 59.9 -53.2-28.2 -2.8-67.8 -53.1 36.1 89.2 0 -133.6-82.7" class="a"/><path d="M1500.1 203l-107.1-88.5 2.8 67.8 23.5 23.5 46.1-56.9 -105.9-2.8 -14.1 65.4 -102.6-78.1 150.1-18.8 -92.2 70.6 -63.5 87.1 -75.8-46.1 49.4-23.1 -18.4 74.8 -31.1-51.8 -13.2 88.9 -53.2 18.4 63.5 27.3 -138.4 0 -55.1 24.5 -154.5 48.6 157.3-97.6 -99.3 39.5 -87.1 40.7 -53.1 81 -49.3-9.3 -2.8 67.3 -10.5 17.3c-114.7-35-227.3-73.4-337-116.5l21.8 109.6 202.7-3.7 -135.5 35.3 -130.8 74.8 -75.8-46.1 -45.2 19.8 -18.4 67.3 57.9 51.8 -96.9 47.1 -88.6 53.1 35.4-81.3 182.1-88.5 -148.8 56.9 -173.5 42.4" class="a"/><path d="M1507.8 37.1l-168 49.2 -178.4 139.8 -130.8 74.8 -65.4 84.2 -122.4-34.8 -114.4 45.8 -49.3 92 -251 49.6 -40.3-33 -59-48.4 -39.1 81.4 -123.8 108.2 -63.1 40.9 -73.9 5.6 -9 172.6 -70-81.3" class="a"/></g></g></svg>